<svg xmlns="http://www.w3.org/2000/svg" width="702.7" height="100" viewBox="0 0 702.7 100">
  <g id="Ebene_2" data-name="Ebene 2">
    <g id="logotype">
      <g id="object">
        <g>
          <g>
            <path d="M266,38.6V43h4.7v1.4H266v6h-1.7V37.3H271v1.4h-5Z" fill="#fff"/>
            <path d="M278.4,42.2a2.49,2.49,0,0,0-.8-.1,2,2,0,0,0-1.9,1.2,7.31,7.31,0,0,0-.6,3.2v3.9h-1.7V40.7H275a4.48,4.48,0,0,1-.1,1.1,5,5,0,0,1-.2,1.2h0a4.18,4.18,0,0,1,1.1-1.8,2.58,2.58,0,0,1,2-.7h.3a.37.37,0,0,1,.3.1Z" fill="#fff"/>
            <path d="M285.8,50.4v-1a2.48,2.48,0,0,1,.1-.9h0a2.89,2.89,0,0,1-1.2,1.5,3.7,3.7,0,0,1-2.1.6,2.88,2.88,0,0,1-2-.7,2.2,2.2,0,0,1-.8-1.8,2.75,2.75,0,0,1,1.5-2.5,8.76,8.76,0,0,1,4.4-.9v-.5a2.46,2.46,0,0,0-.5-1.7,2.16,2.16,0,0,0-1.8-.6,5.9,5.9,0,0,0-1.4.2,5,5,0,0,0-1.3.5l-.4-1.4a13.08,13.08,0,0,1,1.5-.5,11.08,11.08,0,0,1,1.9-.2,9,9,0,0,1,1.8.2,3,3,0,0,1,1.1.7,2.38,2.38,0,0,1,.6,1.1,5.9,5.9,0,0,1,.2,1.4v6.4h-1.6Zm-.1-4.6a10.61,10.61,0,0,0-2.1.2,3.2,3.2,0,0,0-1.3.5,4.35,4.35,0,0,0-.7.6,1.85,1.85,0,0,0-.2.7,1.16,1.16,0,0,0,.4,1,1.5,1.5,0,0,0,1.1.4,2,2,0,0,0,1.1-.3,5.5,5.5,0,0,0,.9-.7c.2-.3.4-.7.6-1a5,5,0,0,0,.2-1.2Z" fill="#fff"/>
            <path d="M296.9,50.4V44.2a2.86,2.86,0,0,0-.4-1.7c-.2-.4-.7-.6-1.4-.6a2,2,0,0,0-1.1.3,6.47,6.47,0,0,0-.9.8,4.49,4.49,0,0,0-.6,1.2,7.72,7.72,0,0,0-.2,1.5v4.7h-1.5V40.7h1.6v1c0,.4-.1.7-.1,1h0a4.31,4.31,0,0,1,1.3-1.7,3.7,3.7,0,0,1,2.1-.6,5.21,5.21,0,0,1,1.4.2,2.18,2.18,0,0,1,.9.7,3.13,3.13,0,0,1,.5,1,4.87,4.87,0,0,1,.1,1.2v6.8h-1.7Z" fill="#fff"/>
            <path d="M306.9,50.3a8.81,8.81,0,0,1-1.7.2,7.77,7.77,0,0,1-1.6-.2,2.22,2.22,0,0,1-1.3-.8,3.39,3.39,0,0,1-.9-1.4,6.87,6.87,0,0,1-.3-2.2,7.8,7.8,0,0,1,.3-2.2,4.61,4.61,0,0,1,.9-1.7,4.86,4.86,0,0,1,1.4-1.1,4.48,4.48,0,0,1,2-.4,5.28,5.28,0,0,1,1.3.1,9.29,9.29,0,0,1,1.3.4l-.4,1.4a4.79,4.79,0,0,0-2.3-.5,2.39,2.39,0,0,0-2.1,1,4.65,4.65,0,0,0-.7,2.8,6.6,6.6,0,0,0,.1,1.4,3.58,3.58,0,0,0,.4,1.1,1.78,1.78,0,0,0,.8.7,2.5,2.5,0,0,0,1.3.3,6.75,6.75,0,0,0,1.4-.2c.4-.1.8-.3,1.2-.4l.3,1.3A8.4,8.4,0,0,1,306.9,50.3Zm-.8,2a2.77,2.77,0,0,1-.1.9,2.36,2.36,0,0,1-.6.9,6.23,6.23,0,0,1-1.2.9l-.7-.7a2.9,2.9,0,0,0,1.1-1.5,2.41,2.41,0,0,0-.3-1.6h1.6A6.53,6.53,0,0,1,306.1,52.3Z" fill="#fff"/>
            <path d="M315.8,50.4v-1a2.48,2.48,0,0,1,.1-.9h0a2.89,2.89,0,0,1-1.2,1.5,3.7,3.7,0,0,1-2.1.6,2.88,2.88,0,0,1-2-.7,2.2,2.2,0,0,1-.8-1.8,2.75,2.75,0,0,1,1.5-2.5,8.76,8.76,0,0,1,4.4-.9v-.5a2.46,2.46,0,0,0-.5-1.7,2.16,2.16,0,0,0-1.8-.6,5.9,5.9,0,0,0-1.4.2,5,5,0,0,0-1.3.5l-.4-1.4a13.08,13.08,0,0,1,1.5-.5,11.08,11.08,0,0,1,1.9-.2,9,9,0,0,1,1.8.2,3,3,0,0,1,1.1.7,2.38,2.38,0,0,1,.6,1.1,5.9,5.9,0,0,1,.2,1.4v6.4h-1.6Zm-.1-4.6a10.61,10.61,0,0,0-2.1.2,3.2,3.2,0,0,0-1.3.5,4.35,4.35,0,0,0-.7.6,1.85,1.85,0,0,0-.2.7,1.16,1.16,0,0,0,.4,1,1.5,1.5,0,0,0,1.1.4,2,2,0,0,0,1.1-.3,5.5,5.5,0,0,0,.9-.7c.2-.3.4-.7.6-1a5,5,0,0,0,.2-1.2Z" fill="#fff"/>
            <path d="M322.7,37.6a1,1,0,1,1-.3-.8A1.33,1.33,0,0,1,322.7,37.6Zm-1.9,12.8V40.7h1.7v9.7Z" fill="#fff"/>
            <path d="M331.4,47.6a2.13,2.13,0,0,1-.3,1.2,2.36,2.36,0,0,1-.8.9,2.73,2.73,0,0,1-1.2.6,7.77,7.77,0,0,1-1.6.2,5.7,5.7,0,0,1-1.3-.1c-.4-.1-.8-.2-1.1-.3l.2-1.5a3.54,3.54,0,0,0,1.1.3,5.28,5.28,0,0,0,1.3.1,3.19,3.19,0,0,0,1.4-.3,1.1,1.1,0,0,0,.6-1,1,1,0,0,0-.4-.9,5,5,0,0,0-1.3-.7l-.6-.2a3.84,3.84,0,0,1-1.7-1.1,2.77,2.77,0,0,1-.5-1.6,4.25,4.25,0,0,1,.2-1.1,5.5,5.5,0,0,1,.7-.9,6.66,6.66,0,0,1,1.2-.6,7.77,7.77,0,0,1,1.6-.2h1c.3,0,.7.1,1,.1l-.2,1.4a2.92,2.92,0,0,0-.9-.2,3.08,3.08,0,0,0-1-.1,2,2,0,0,0-1.4.4,1.22,1.22,0,0,0-.4.9,1,1,0,0,0,.4.9,3.53,3.53,0,0,0,1.4.7l.6.3a4.88,4.88,0,0,1,1.6,1A3.66,3.66,0,0,1,331.4,47.6Z" fill="#fff"/>
            <path d="M348.6,44.6v.8h-6.3a4,4,0,0,0,.7,2.9,2.87,2.87,0,0,0,2.3.9,8.75,8.75,0,0,0,1.6-.2,5,5,0,0,0,1.3-.4l.3,1.3a7.49,7.49,0,0,1-1.6.4,11.08,11.08,0,0,1-1.9.2,4.46,4.46,0,0,1-3.3-1.2,5.24,5.24,0,0,1-1.1-3.8,6.45,6.45,0,0,1,.3-2,6,6,0,0,1,.8-1.6,3.81,3.81,0,0,1,1.4-1.1,3.42,3.42,0,0,1,1.8-.4,4.31,4.31,0,0,1,1.7.3,2.73,2.73,0,0,1,1.2.9,5.39,5.39,0,0,1,.7,1.3A10.9,10.9,0,0,1,348.6,44.6Zm-2.2-2.2a2.41,2.41,0,0,0-1.7-.7,1.86,1.86,0,0,0-1.6.7,3.33,3.33,0,0,0-.8,1.8H347A2.79,2.79,0,0,0,346.4,42.4Z" fill="#fff"/>
            <path d="M357.5,50.4V44.2a2.86,2.86,0,0,0-.4-1.7c-.2-.4-.7-.6-1.4-.6a2,2,0,0,0-1.1.3,6.47,6.47,0,0,0-.9.8,4.49,4.49,0,0,0-.6,1.2,7.72,7.72,0,0,0-.2,1.5v4.7h-1.7V40.7h1.6v1c0,.4-.1.7-.1,1h0A4.31,4.31,0,0,1,354,41a3.7,3.7,0,0,1,2.1-.6,5.21,5.21,0,0,1,1.4.2,2.18,2.18,0,0,1,.9.7,3.13,3.13,0,0,1,.5,1,4.87,4.87,0,0,1,.1,1.2v6.8h-1.5Z" fill="#fff"/>
            <path d="M376.8,46.6a4.15,4.15,0,0,1-.3,1.6,2.34,2.34,0,0,1-1,1.2,5.3,5.3,0,0,1-1.5.8,5.82,5.82,0,0,1-1.9.3,9.15,9.15,0,0,1-1.7-.1c-.5-.1-1-.2-1.4-.3l.3-1.6a5,5,0,0,0,1.3.4,8.08,8.08,0,0,0,1.6.1,3.4,3.4,0,0,0,1-.1,3.55,3.55,0,0,0,.9-.4,1.34,1.34,0,0,0,.6-.7,1.82,1.82,0,0,0,.2-1.1,1.7,1.7,0,0,0-.1-.7,2.09,2.09,0,0,0-.4-.6,2.76,2.76,0,0,0-.8-.6,6.66,6.66,0,0,0-1.2-.6l-.7-.3a4.39,4.39,0,0,1-2.1-1.5,3.17,3.17,0,0,1-.6-2,4,4,0,0,1,.3-1.5,3.13,3.13,0,0,1,.9-1.1,3.09,3.09,0,0,1,1.4-.7,5.23,5.23,0,0,1,1.8-.3,6.6,6.6,0,0,1,1.4.1,5,5,0,0,1,1.2.2l-.3,1.5c-.3-.1-.7-.2-1.1-.3a5.28,5.28,0,0,0-1.3-.1,3.09,3.09,0,0,0-1.9.5,2,2,0,0,0-.7,1.5,2.11,2.11,0,0,0,.5,1.3,9.74,9.74,0,0,0,1.5,1l.8.3a7.63,7.63,0,0,1,2.4,1.5A2.94,2.94,0,0,1,376.8,46.6Z" fill="#fff"/>
            <path d="M385.7,50.4v-1c0-.4.1-.7.1-1h0a4.31,4.31,0,0,1-1.3,1.7,3.7,3.7,0,0,1-2.1.6,5.21,5.21,0,0,1-1.4-.2,2.18,2.18,0,0,1-.9-.7,3.13,3.13,0,0,1-.5-1,4.87,4.87,0,0,1-.1-1.2V40.8h1.7V47a2.86,2.86,0,0,0,.4,1.7,1.38,1.38,0,0,0,1.3.6A2,2,0,0,0,384,49a6.47,6.47,0,0,0,.9-.8,4.49,4.49,0,0,0,.6-1.2,7.72,7.72,0,0,0,.2-1.5V40.8h1.7v9.7h-1.7Z" fill="#fff"/>
            <path d="M392.7,37.6a1,1,0,1,1-.3-.8A1.33,1.33,0,0,1,392.7,37.6Zm-2,12.8V40.7h1.7v9.7Z" fill="#fff"/>
            <path d="M401.4,47.6a2.13,2.13,0,0,1-.3,1.2,2.36,2.36,0,0,1-.8.9,2.73,2.73,0,0,1-1.2.6,7.77,7.77,0,0,1-1.6.2,5.7,5.7,0,0,1-1.3-.1c-.4-.1-.8-.2-1.1-.3l.2-1.5a3.54,3.54,0,0,0,1.1.3,5.28,5.28,0,0,0,1.3.1,3.19,3.19,0,0,0,1.4-.3,1.1,1.1,0,0,0,.6-1,1,1,0,0,0-.4-.9,5,5,0,0,0-1.3-.7l-.6-.2a3.84,3.84,0,0,1-1.7-1.1,2.77,2.77,0,0,1-.5-1.6,4.25,4.25,0,0,1,.2-1.1,5.5,5.5,0,0,1,.7-.9,6.66,6.66,0,0,1,1.2-.6,7.77,7.77,0,0,1,1.6-.2h1c.3,0,.7.1,1,.1l-.2,1.4a2.92,2.92,0,0,0-.9-.2,3.08,3.08,0,0,0-1-.1,2,2,0,0,0-1.4.4,1.22,1.22,0,0,0-.4.9,1,1,0,0,0,.4.9,3.53,3.53,0,0,0,1.4.7l.6.3a4.88,4.88,0,0,1,1.6,1A5.26,5.26,0,0,1,401.4,47.6Z" fill="#fff"/>
            <path d="M409.7,47.6a2.13,2.13,0,0,1-.3,1.2,2.36,2.36,0,0,1-.8.9,2.73,2.73,0,0,1-1.2.6,7.77,7.77,0,0,1-1.6.2,5.7,5.7,0,0,1-1.3-.1c-.4-.1-.8-.2-1.1-.3l.2-1.5a3.54,3.54,0,0,0,1.1.3,5.28,5.28,0,0,0,1.3.1,3.19,3.19,0,0,0,1.4-.3,1.1,1.1,0,0,0,.6-1,1,1,0,0,0-.4-.9,5,5,0,0,0-1.3-.7l-.6-.2a3.84,3.84,0,0,1-1.7-1.1,2.77,2.77,0,0,1-.5-1.6,4.25,4.25,0,0,1,.2-1.1,5.5,5.5,0,0,1,.7-.9,6.66,6.66,0,0,1,1.2-.6,7.77,7.77,0,0,1,1.6-.2h1c.3,0,.7.1,1,.1l-.2,1.4a2.92,2.92,0,0,0-.9-.2,3.08,3.08,0,0,0-1-.1,2,2,0,0,0-1.4.4,1.22,1.22,0,0,0-.4.9,1,1,0,0,0,.4.9,3.53,3.53,0,0,0,1.4.7l.6.3a4.88,4.88,0,0,1,1.6,1A5.26,5.26,0,0,1,409.7,47.6Z" fill="#fff"/>
            <path d="M419.6,44.6v.8h-6.3a4,4,0,0,0,.7,2.9,2.87,2.87,0,0,0,2.3.9,8.75,8.75,0,0,0,1.6-.2,5,5,0,0,0,1.3-.4l.3,1.3a7.49,7.49,0,0,1-1.6.4,11.08,11.08,0,0,1-1.9.2,4.46,4.46,0,0,1-3.3-1.2,5.24,5.24,0,0,1-1.1-3.8,6.45,6.45,0,0,1,.3-2,6,6,0,0,1,.8-1.6,3.81,3.81,0,0,1,1.4-1.1,3.42,3.42,0,0,1,1.8-.4,4.31,4.31,0,0,1,1.7.3,2.73,2.73,0,0,1,1.2.9,5.39,5.39,0,0,1,.7,1.3C419.5,43.6,419.6,44.1,419.6,44.6Zm-2.2-2.2a2.41,2.41,0,0,0-1.7-.7,1.86,1.86,0,0,0-1.6.7,3.33,3.33,0,0,0-.8,1.8H418A2.79,2.79,0,0,0,417.4,42.4Z" fill="#fff"/>
            <path d="M428.8,45.5V44.1h8.8v1.4Z" fill="#fff"/>
            <path d="M452.6,50.4v-1a2.48,2.48,0,0,1,.1-.9h0a2.89,2.89,0,0,1-1.2,1.5,3.7,3.7,0,0,1-2.1.6,2.88,2.88,0,0,1-2-.7,2.2,2.2,0,0,1-.8-1.8,2.75,2.75,0,0,1,1.5-2.5,8.76,8.76,0,0,1,4.4-.9v-.5a2.46,2.46,0,0,0-.5-1.7,2.16,2.16,0,0,0-1.8-.6,5.9,5.9,0,0,0-1.4.2,5,5,0,0,0-1.3.5l-.4-1.4a13.08,13.08,0,0,1,1.5-.5,11.08,11.08,0,0,1,1.9-.2,9,9,0,0,1,1.8.2,3,3,0,0,1,1.1.7,2.38,2.38,0,0,1,.6,1.1,5.9,5.9,0,0,1,.2,1.4v6.4h-1.6Zm0-4.6a10.61,10.61,0,0,0-2.1.2,3.2,3.2,0,0,0-1.3.5,4.35,4.35,0,0,0-.7.6,1.85,1.85,0,0,0-.2.7,1.16,1.16,0,0,0,.4,1,1.5,1.5,0,0,0,1.1.4,2,2,0,0,0,1.1-.3,5.5,5.5,0,0,0,.9-.7c.2-.3.4-.7.6-1a5,5,0,0,0,.2-1.2Z" fill="#fff"/>
            <path d="M465.9,45.2a7.32,7.32,0,0,1-.3,2.2,3.67,3.67,0,0,1-1,1.7,3.07,3.07,0,0,1-1.5,1,5.92,5.92,0,0,1-2,.4h-1c-.3,0-.6-.1-.9-.1v4.9h-1.7V40.8h1.6v1c0,.4-.1.7-.1,1h0a3.44,3.44,0,0,1,1.3-1.6,3.38,3.38,0,0,1,2-.6,3.09,3.09,0,0,1,2.6,1.2A4.61,4.61,0,0,1,465.9,45.2Zm-1.7.1a5.51,5.51,0,0,0-.5-2.5,1.8,1.8,0,0,0-1.6-.9,1.59,1.59,0,0,0-1.2.4,3.82,3.82,0,0,0-.9.9,5,5,0,0,0-.5,1.3,6.75,6.75,0,0,0-.2,1.4V49c.3.1.5.2.8.3a3.75,3.75,0,0,0,1.1.1,5,5,0,0,0,1.2-.2,1.6,1.6,0,0,0,.9-.7,2.28,2.28,0,0,0,.6-1.2A6.93,6.93,0,0,0,464.2,45.3Z" fill="#fff"/>
            <path d="M476.8,45.2a7.32,7.32,0,0,1-.3,2.2,3.67,3.67,0,0,1-1,1.7,3.07,3.07,0,0,1-1.5,1,5.92,5.92,0,0,1-2,.4h-1c-.3,0-.6-.1-.9-.1v4.9h-1.7V40.8H470v1c0,.4-.1.7-.1,1h0a3.44,3.44,0,0,1,1.3-1.6,3.38,3.38,0,0,1,2-.6,3.09,3.09,0,0,1,2.6,1.2A4.61,4.61,0,0,1,476.8,45.2Zm-1.7.1a5.51,5.51,0,0,0-.5-2.5,1.8,1.8,0,0,0-1.6-.9,1.59,1.59,0,0,0-1.2.4,3.82,3.82,0,0,0-.9.9,5,5,0,0,0-.5,1.3,6.75,6.75,0,0,0-.2,1.4V49c.3.1.5.2.8.3a3.75,3.75,0,0,0,1.1.1,5,5,0,0,0,1.2-.2,1.6,1.6,0,0,0,.9-.7,2.28,2.28,0,0,0,.6-1.2A6.93,6.93,0,0,0,475.1,45.3Z" fill="#fff"/>
            <path d="M484.3,42.2a2.49,2.49,0,0,0-.8-.1,2,2,0,0,0-1.9,1.2,7.31,7.31,0,0,0-.6,3.2v3.9h-1.7V40.7h1.6a4.48,4.48,0,0,1-.1,1.1,5,5,0,0,1-.2,1.2h0a4.18,4.18,0,0,1,1.1-1.8,2.58,2.58,0,0,1,2-.7h.3a.37.37,0,0,1,.3.1Z" fill="#fff"/>
            <path d="M493.7,44.6v.8h-6.3a4,4,0,0,0,.7,2.9,2.87,2.87,0,0,0,2.3.9A8.75,8.75,0,0,0,492,49a5,5,0,0,0,1.3-.4l.3,1.3a7.49,7.49,0,0,1-1.6.4,11.08,11.08,0,0,1-1.9.2,4.46,4.46,0,0,1-3.3-1.2,5.24,5.24,0,0,1-1.1-3.8,6.45,6.45,0,0,1,.3-2,6,6,0,0,1,.8-1.6,3.81,3.81,0,0,1,1.4-1.1,3.42,3.42,0,0,1,1.8-.4,4.31,4.31,0,0,1,1.7.3,2.73,2.73,0,0,1,1.2.9,5.39,5.39,0,0,1,.7,1.3C493.6,43.6,493.7,44.1,493.7,44.6Zm-2.2-2.2a2.41,2.41,0,0,0-1.7-.7,1.86,1.86,0,0,0-1.6.7,3.33,3.33,0,0,0-.8,1.8h4.7A2.79,2.79,0,0,0,491.5,42.4Z" fill="#fff"/>
            <path d="M502.6,50.4V44.2a2.86,2.86,0,0,0-.4-1.7c-.2-.4-.7-.6-1.4-.6a2,2,0,0,0-1.1.3,6.47,6.47,0,0,0-.9.8,4.49,4.49,0,0,0-.6,1.2,7.72,7.72,0,0,0-.2,1.5v4.7h-1.7V40.7h1.6v1c0,.4-.1.7-.1,1h0a4.31,4.31,0,0,1,1.3-1.7,3.7,3.7,0,0,1,2.1-.6,5.21,5.21,0,0,1,1.4.2,2.18,2.18,0,0,1,.9.7,3.13,3.13,0,0,1,.5,1,4.87,4.87,0,0,1,.1,1.2v6.8h-1.5Z" fill="#fff"/>
            <path d="M513.4,50.4v-1c0-.4.1-.7.1-1h0a4,4,0,0,1-1.2,1.6,3.38,3.38,0,0,1-2,.6,3.16,3.16,0,0,1-2.7-1.2,5.39,5.39,0,0,1-.9-3.3,5.56,5.56,0,0,1,.4-2.3,4.78,4.78,0,0,1,1-1.7,4.57,4.57,0,0,1,1.6-1.1,6.54,6.54,0,0,1,2.1-.4h.8a2.77,2.77,0,0,1,.9.1V36.2h1.7V50.4Zm0-8.3c-.3-.1-.6-.1-.9-.2h-.9a5.07,5.07,0,0,0-1.3.2,2.61,2.61,0,0,0-1.6,1.9,9,9,0,0,0-.2,1.8,5.51,5.51,0,0,0,.5,2.5,1.85,1.85,0,0,0,1.7.9,1.75,1.75,0,0,0,1.2-.4,2.36,2.36,0,0,0,.8-.9,6.12,6.12,0,0,0,.5-1.2,5.85,5.85,0,0,0,.2-1.3Z" fill="#fff"/>
            <path d="M523.4,42.2a2.49,2.49,0,0,0-.8-.1,2,2,0,0,0-1.9,1.2,7.31,7.31,0,0,0-.6,3.2v3.9h-1.7V40.7H520a4.48,4.48,0,0,1-.1,1.1,5,5,0,0,1-.2,1.2h0a4.18,4.18,0,0,1,1.1-1.8,2.58,2.58,0,0,1,2-.7h.3a.37.37,0,0,1,.3.1Z" fill="#fff"/>
            <path d="M532.8,44.6v.8h-6.3a4,4,0,0,0,.7,2.9,2.87,2.87,0,0,0,2.3.9,8.75,8.75,0,0,0,1.6-.2,5,5,0,0,0,1.3-.4l.3,1.3a7.49,7.49,0,0,1-1.6.4,11.08,11.08,0,0,1-1.9.2,4.46,4.46,0,0,1-3.3-1.2,5.24,5.24,0,0,1-1.1-3.8,6.45,6.45,0,0,1,.3-2,6,6,0,0,1,.8-1.6,3.81,3.81,0,0,1,1.4-1.1,3.42,3.42,0,0,1,1.8-.4,4.31,4.31,0,0,1,1.7.3,2.73,2.73,0,0,1,1.2.9,5.39,5.39,0,0,1,.7,1.3C532.7,43.6,532.8,44.1,532.8,44.6Zm-2.2-2.2a2.41,2.41,0,0,0-1.7-.7,1.86,1.86,0,0,0-1.6.7,3.33,3.33,0,0,0-.8,1.8h4.7A2.79,2.79,0,0,0,530.6,42.4Z" fill="#fff"/>
            <path d="M535.9,48.3a.81.81,0,0,1,.8.4,1.8,1.8,0,0,1,.3,1.1,3.68,3.68,0,0,1-.5,1.6,5.4,5.4,0,0,1-1.6,1.9l-.7-.6a5.5,5.5,0,0,0,.7-.9,1.33,1.33,0,0,0,.3-.8.64.64,0,0,0,0-.6c0-.2-.1-.3-.2-.5s-.2-.3-.2-.5a.75.75,0,0,1,.1-.5.78.78,0,0,1,.4-.4A.73.73,0,0,1,535.9,48.3Z" fill="#fff"/>
            <path d="M554.3,44.6v.8H548a4,4,0,0,0,.7,2.9,2.87,2.87,0,0,0,2.3.9,8.75,8.75,0,0,0,1.6-.2,5,5,0,0,0,1.3-.4l.3,1.3a7.49,7.49,0,0,1-1.6.4,11.08,11.08,0,0,1-1.9.2,4.46,4.46,0,0,1-3.3-1.2,5.24,5.24,0,0,1-1.1-3.8,6.45,6.45,0,0,1,.3-2,6,6,0,0,1,.8-1.6,3.81,3.81,0,0,1,1.4-1.1,3.42,3.42,0,0,1,1.8-.4,4.31,4.31,0,0,1,1.7.3,2.73,2.73,0,0,1,1.2.9,5.39,5.39,0,0,1,.7,1.3C554.2,43.6,554.3,44.1,554.3,44.6Zm-2.2-2.2a2.41,2.41,0,0,0-1.7-.7,1.86,1.86,0,0,0-1.6.7,3.33,3.33,0,0,0-.8,1.8h4.7A2.79,2.79,0,0,0,552.1,42.4Z" fill="#fff"/>
            <path d="M563.1,50.4V44.2a2.86,2.86,0,0,0-.4-1.7c-.2-.4-.7-.6-1.4-.6a2,2,0,0,0-1.1.3,6.47,6.47,0,0,0-.9.8,4.49,4.49,0,0,0-.6,1.2,7.72,7.72,0,0,0-.2,1.5v4.7h-1.7V40.7h1.6v1c0,.4-.1.7-.1,1h0a4.31,4.31,0,0,1,1.3-1.7,3.7,3.7,0,0,1,2.1-.6,5.21,5.21,0,0,1,1.4.2,2.18,2.18,0,0,1,.9.7,3.13,3.13,0,0,1,.5,1,4.87,4.87,0,0,1,.1,1.2v6.8h-1.5Z" fill="#fff"/>
            <path d="M573.8,47.6a2.13,2.13,0,0,1-.3,1.2,2.36,2.36,0,0,1-.8.9,2.73,2.73,0,0,1-1.2.6,7.77,7.77,0,0,1-1.6.2,5.7,5.7,0,0,1-1.3-.1c-.4-.1-.8-.2-1.1-.3l.2-1.5a3.54,3.54,0,0,0,1.1.3,5.28,5.28,0,0,0,1.3.1,3.19,3.19,0,0,0,1.4-.3,1.1,1.1,0,0,0,.6-1,1,1,0,0,0-.4-.9,5,5,0,0,0-1.3-.7l-.6-.2a3.84,3.84,0,0,1-1.7-1.1,2.77,2.77,0,0,1-.5-1.6,4.25,4.25,0,0,1,.2-1.1,5.5,5.5,0,0,1,.7-.9,6.66,6.66,0,0,1,1.2-.6,7.77,7.77,0,0,1,1.6-.2h1c.3,0,.7.1,1,.1l-.2,1.4a2.92,2.92,0,0,0-.9-.2,3.08,3.08,0,0,0-1-.1,2,2,0,0,0-1.4.4,1.22,1.22,0,0,0-.4.9,1,1,0,0,0,.4.9,3.53,3.53,0,0,0,1.4.7l.6.3a4.88,4.88,0,0,1,1.6,1A5.26,5.26,0,0,1,573.8,47.6Z" fill="#fff"/>
            <path d="M583.7,44.6v.8h-6.3a4,4,0,0,0,.7,2.9,2.87,2.87,0,0,0,2.3.9A8.75,8.75,0,0,0,582,49a5,5,0,0,0,1.3-.4l.3,1.3a7.49,7.49,0,0,1-1.6.4,11.08,11.08,0,0,1-1.9.2,4.46,4.46,0,0,1-3.3-1.2,5.24,5.24,0,0,1-1.1-3.8,6.45,6.45,0,0,1,.3-2,6,6,0,0,1,.8-1.6,3.81,3.81,0,0,1,1.4-1.1,3.42,3.42,0,0,1,1.8-.4,4.31,4.31,0,0,1,1.7.3,2.73,2.73,0,0,1,1.2.9,5.39,5.39,0,0,1,.7,1.3C583.6,43.6,583.7,44.1,583.7,44.6Zm-2.2-2.2a2.41,2.41,0,0,0-1.7-.7,1.86,1.86,0,0,0-1.6.7,3.33,3.33,0,0,0-.8,1.8h4.7A3.51,3.51,0,0,0,581.5,42.4Z" fill="#fff"/>
            <path d="M588.3,37.6a1,1,0,1,1-.3-.8A1.33,1.33,0,0,1,588.3,37.6Zm-2,12.8V40.7H588v9.7Z" fill="#fff"/>
            <path d="M598,42a2.18,2.18,0,0,1,.5.8,3.59,3.59,0,0,1,.2,1.1,3.19,3.19,0,0,1-.3,1.4,4.44,4.44,0,0,1-.8,1.1,5.67,5.67,0,0,1-1.3.8,4.67,4.67,0,0,1-1.7.3H594c-.2,0-.3,0-.4-.1a1.21,1.21,0,0,0-.6.9.51.51,0,0,0,.4.5,2.87,2.87,0,0,0,1.2.2l1.8.1a3.89,3.89,0,0,1,2.5.8,2.56,2.56,0,0,1,.8,1.9,3.19,3.19,0,0,1-.3,1.4,3.46,3.46,0,0,1-1,1.1,6,6,0,0,1-1.6.8,7.32,7.32,0,0,1-2.2.3,7.77,7.77,0,0,1-1.6-.2,5,5,0,0,1-1.3-.5,2,2,0,0,1-.9-.9,2.13,2.13,0,0,1-.3-1.2,3,3,0,0,1,.5-1.5,4.49,4.49,0,0,1,1.3-1.1,1.38,1.38,0,0,1-1-1.3,1.93,1.93,0,0,1,.3-1,3,3,0,0,1,.8-.8,2.35,2.35,0,0,1-1.1-1.1,4.19,4.19,0,0,1-.4-1.6,3.19,3.19,0,0,1,.3-1.4,4.18,4.18,0,0,1,.8-1.2,4.11,4.11,0,0,1,1.3-.8,4.67,4.67,0,0,1,1.7-.3h.7c.2,0,.4.1.7.1h3.4v1.3H598Zm-.1,10a1.5,1.5,0,0,0-.4-1.1,2.73,2.73,0,0,0-1.6-.5l-2.4-.1a2.84,2.84,0,0,0-1,.9,1.67,1.67,0,0,0-.4,1.1,1.46,1.46,0,0,0,.7,1.3,3.68,3.68,0,0,0,2,.5,5.21,5.21,0,0,0,1.4-.2,3.13,3.13,0,0,0,1-.5,1.34,1.34,0,0,0,.6-.7C597.8,52.5,597.9,52.3,597.9,52Zm-.8-8a2.27,2.27,0,0,0-.6-1.6,2.48,2.48,0,0,0-1.8-.7,3,3,0,0,0-1,.2,2.62,2.62,0,0,0-1.2,1.2,2.92,2.92,0,0,0-.2.9,2.27,2.27,0,0,0,.6,1.6,2.71,2.71,0,0,0,3.4,0A1.94,1.94,0,0,0,597.1,44Z" fill="#fff"/>
            <path d="M608.2,50.4V44.2a2.86,2.86,0,0,0-.4-1.7c-.2-.4-.7-.6-1.4-.6a2,2,0,0,0-1.1.3,6.47,6.47,0,0,0-.9.8,4.49,4.49,0,0,0-.6,1.2,7.72,7.72,0,0,0-.2,1.5v4.7h-1.7V40.7h1.6v1c0,.4-.1.7-.1,1h0a4.31,4.31,0,0,1,1.3-1.7,3.7,3.7,0,0,1,2.1-.6,5.21,5.21,0,0,1,1.4.2,2.18,2.18,0,0,1,.9.7,3.13,3.13,0,0,1,.5,1,4.87,4.87,0,0,1,.1,1.2v6.8h-1.5Z" fill="#fff"/>
            <path d="M620.4,44.6v.8h-6.3a4,4,0,0,0,.7,2.9,2.87,2.87,0,0,0,2.3.9,8.75,8.75,0,0,0,1.6-.2,5,5,0,0,0,1.3-.4l.3,1.3a7.49,7.49,0,0,1-1.6.4,11.08,11.08,0,0,1-1.9.2,4.46,4.46,0,0,1-3.3-1.2,5.24,5.24,0,0,1-1.1-3.8,6.45,6.45,0,0,1,.3-2,6,6,0,0,1,.8-1.6,3.81,3.81,0,0,1,1.4-1.1,3.42,3.42,0,0,1,1.8-.4,4.31,4.31,0,0,1,1.7.3,2.73,2.73,0,0,1,1.2.9,5.39,5.39,0,0,1,.7,1.3C620.3,43.6,620.4,44.1,620.4,44.6Zm-2.2-2.2a2.41,2.41,0,0,0-1.7-.7,1.86,1.86,0,0,0-1.6.7,3.33,3.33,0,0,0-.8,1.8h4.7A2.79,2.79,0,0,0,618.2,42.4Z" fill="#fff"/>
            <path d="M628,42.2a2.49,2.49,0,0,0-.8-.1,2,2,0,0,0-1.9,1.2,7.31,7.31,0,0,0-.6,3.2v3.9H623V40.7h1.6a4.48,4.48,0,0,1-.1,1.1,5,5,0,0,1-.2,1.2h0a4.18,4.18,0,0,1,1.1-1.8,2.58,2.58,0,0,1,2-.7h.3a.37.37,0,0,1,.3.1Z" fill="#fff"/>
            <path d="M630.7,48.3a.81.81,0,0,1,.8.4,1.8,1.8,0,0,1,.3,1.1,3.68,3.68,0,0,1-.5,1.6,5.4,5.4,0,0,1-1.6,1.9l-.7-.6a5.5,5.5,0,0,0,.7-.9,1.33,1.33,0,0,0,.3-.8.64.64,0,0,0,0-.6c0-.2-.1-.3-.2-.5s-.2-.3-.2-.5a.75.75,0,0,1,.1-.5.78.78,0,0,1,.4-.4C630.3,48.3,630.4,48.3,630.7,48.3Z" fill="#fff"/>
            <path d="M649.1,44.6v.8h-6.3a4,4,0,0,0,.7,2.9,2.87,2.87,0,0,0,2.3.9,8.75,8.75,0,0,0,1.6-.2,5,5,0,0,0,1.3-.4l.3,1.3a7.49,7.49,0,0,1-1.6.4,11.08,11.08,0,0,1-1.9.2,4.46,4.46,0,0,1-3.3-1.2,5.24,5.24,0,0,1-1.1-3.8,6.45,6.45,0,0,1,.3-2,6,6,0,0,1,.8-1.6,3.81,3.81,0,0,1,1.4-1.1,3.42,3.42,0,0,1,1.8-.4,4.31,4.31,0,0,1,1.7.3,2.73,2.73,0,0,1,1.2.9,5.39,5.39,0,0,1,.7,1.3C649,43.6,649.1,44.1,649.1,44.6Zm-2.2-2.2a2.41,2.41,0,0,0-1.7-.7,1.86,1.86,0,0,0-1.6.7,3.33,3.33,0,0,0-.8,1.8h4.7A2.79,2.79,0,0,0,646.9,42.4Zm-2.1-3.3-.7-.9,2.7-2.2.8,1.1Z" fill="#fff"/>
            <path d="M655.6,50.4h-1.7l-3.6-9.7h1.8l2.1,6,.3.9.3.9h0l.3-.9.3-.9,2.2-6h1.8Z" fill="#fff"/>
            <path d="M666.3,50.4v-1a2.48,2.48,0,0,1,.1-.9h0a2.89,2.89,0,0,1-1.2,1.5,3.7,3.7,0,0,1-2.1.6,2.88,2.88,0,0,1-2-.7,2.2,2.2,0,0,1-.8-1.8,2.75,2.75,0,0,1,1.5-2.5,8.76,8.76,0,0,1,4.4-.9v-.5a2.46,2.46,0,0,0-.5-1.7,2.16,2.16,0,0,0-1.8-.6,5.9,5.9,0,0,0-1.4.2,5,5,0,0,0-1.3.5l-.4-1.4a13.08,13.08,0,0,1,1.5-.5,11.08,11.08,0,0,1,1.9-.2,9,9,0,0,1,1.8.2,3,3,0,0,1,1.1.7,2.38,2.38,0,0,1,.6,1.1,5.9,5.9,0,0,1,.2,1.4v6.4h-1.6Zm-.1-4.6a10.61,10.61,0,0,0-2.1.2,3.2,3.2,0,0,0-1.3.5,4.35,4.35,0,0,0-.7.6,1.85,1.85,0,0,0-.2.7,1.16,1.16,0,0,0,.4,1,1.5,1.5,0,0,0,1.1.4,2,2,0,0,0,1.1-.3,5.5,5.5,0,0,0,.9-.7c.2-.3.4-.7.6-1a2.34,2.34,0,0,0,.2-1.2Z" fill="#fff"/>
            <path d="M671.3,50.4V36.2H673V50.4Z" fill="#fff"/>
            <path d="M682.5,50.4v-1c0-.4.1-.7.1-1h0a4.31,4.31,0,0,1-1.3,1.7,3.7,3.7,0,0,1-2.1.6,5.21,5.21,0,0,1-1.4-.2,2.18,2.18,0,0,1-.9-.7,3.13,3.13,0,0,1-.5-1,4.87,4.87,0,0,1-.1-1.2V40.8H678V47a2.86,2.86,0,0,0,.4,1.7,1.38,1.38,0,0,0,1.3.6,2,2,0,0,0,1.1-.3,6.47,6.47,0,0,0,.9-.8,4.49,4.49,0,0,0,.6-1.2,7.72,7.72,0,0,0,.2-1.5V40.8h1.7v9.7h-1.7Z" fill="#fff"/>
            <path d="M694.7,44.6v.8h-6.3a4,4,0,0,0,.7,2.9,2.87,2.87,0,0,0,2.3.9A8.75,8.75,0,0,0,693,49a5,5,0,0,0,1.3-.4l.3,1.3a7.49,7.49,0,0,1-1.6.4,11.08,11.08,0,0,1-1.9.2,4.46,4.46,0,0,1-3.3-1.2,5.24,5.24,0,0,1-1.1-3.8,6.45,6.45,0,0,1,.3-2,6,6,0,0,1,.8-1.6,3.81,3.81,0,0,1,1.4-1.1,3.42,3.42,0,0,1,1.8-.4,4.31,4.31,0,0,1,1.7.3,2.73,2.73,0,0,1,1.2.9,5.39,5.39,0,0,1,.7,1.3A10.9,10.9,0,0,1,694.7,44.6Zm-2.2-2.2a2.41,2.41,0,0,0-1.7-.7,1.86,1.86,0,0,0-1.6.7,3.33,3.33,0,0,0-.8,1.8h4.7A2.79,2.79,0,0,0,692.5,42.4Z" fill="#fff"/>
            <path d="M702.3,42.2a2.49,2.49,0,0,0-.8-.1,2,2,0,0,0-1.9,1.2,7.31,7.31,0,0,0-.6,3.2v3.9h-1.7V40.7h1.6a4.48,4.48,0,0,1-.1,1.1,5,5,0,0,1-.2,1.2h0a4.18,4.18,0,0,1,1.1-1.8,2.58,2.58,0,0,1,2-.7h.3a.37.37,0,0,1,.3.1Z" fill="#fff"/>
            <path d="M264.3,73.7V60.6H266V73.7Z" fill="#fff"/>
            <path d="M273.4,73.8a4.21,4.21,0,0,1-2.2-.1,2.18,2.18,0,0,1-.8-.5,1.88,1.88,0,0,1-.4-.9,5.28,5.28,0,0,1-.1-1.3V65.3h-2V64h2V60.8l1.7-.5v3.6h2.8v1.3h-2.8v5.1a2.79,2.79,0,0,0,.1,1,.85.85,0,0,0,.2.6c.1.2.2.3.4.3a1.27,1.27,0,0,0,.6.1,2.2,2.2,0,0,0,.8-.1,1.85,1.85,0,0,0,.7-.2l.2,1.3A3.34,3.34,0,0,1,273.4,73.8Z" fill="#fff"/>
            <path d="M281.8,73.7v-1a2.48,2.48,0,0,1,.1-.9h0a2.89,2.89,0,0,1-1.2,1.5,3.7,3.7,0,0,1-2.1.6,2.88,2.88,0,0,1-2-.7,2.2,2.2,0,0,1-.8-1.8,2.75,2.75,0,0,1,1.5-2.5,8.76,8.76,0,0,1,4.4-.9v-.5a2.46,2.46,0,0,0-.5-1.7,2.54,2.54,0,0,0-1.8-.6,5.9,5.9,0,0,0-1.4.2,5,5,0,0,0-1.3.5l-.4-1.4a13.08,13.08,0,0,1,1.5-.5,11.08,11.08,0,0,1,1.9-.2,9,9,0,0,1,1.8.2,3,3,0,0,1,1.1.7,2.38,2.38,0,0,1,.6,1.1,5.9,5.9,0,0,1,.2,1.4v6.4h-1.6Zm-.1-4.5a10.61,10.61,0,0,0-2.1.2,3.2,3.2,0,0,0-1.3.5,4.35,4.35,0,0,0-.7.6,1.85,1.85,0,0,0-.2.7,1.16,1.16,0,0,0,.4,1,1.5,1.5,0,0,0,1.1.4,2,2,0,0,0,1.1-.3,5.5,5.5,0,0,0,.9-.7c.2-.3.4-.7.6-1a5,5,0,0,0,.2-1.2Z" fill="#fff"/>
            <path d="M286.8,73.7V59.5h1.7V73.7Z" fill="#fff"/>
            <path d="M293.8,61a1,1,0,1,1-.3-.8A1.91,1.91,0,0,1,293.8,61Zm-2,12.7V64h1.7v9.7Z" fill="#fff"/>
            <path d="M302,73.7v-1a2.48,2.48,0,0,1,.1-.9h0a2.89,2.89,0,0,1-1.2,1.5,3.7,3.7,0,0,1-2.1.6,2.88,2.88,0,0,1-2-.7,2.06,2.06,0,0,1-.8-1.8,2.75,2.75,0,0,1,1.5-2.5,8.76,8.76,0,0,1,4.4-.9v-.5a2.46,2.46,0,0,0-.5-1.7,2.16,2.16,0,0,0-1.8-.6,5.9,5.9,0,0,0-1.4.2,5,5,0,0,0-1.3.5l-.4-1.4A13.08,13.08,0,0,1,298,64a11.08,11.08,0,0,1,1.9-.2,9,9,0,0,1,1.8.2,3,3,0,0,1,1.1.7,2.38,2.38,0,0,1,.6,1.1,5.9,5.9,0,0,1,.2,1.4v6.4H302Zm-.1-4.5a10.61,10.61,0,0,0-2.1.2,3.2,3.2,0,0,0-1.3.5,4.35,4.35,0,0,0-.7.6,1.85,1.85,0,0,0-.2.7,1.16,1.16,0,0,0,.4,1,1.5,1.5,0,0,0,1.1.4,2,2,0,0,0,1.1-.3,5.5,5.5,0,0,0,.9-.7c.2-.3.4-.7.6-1a5,5,0,0,0,.2-1.2Z" fill="#fff"/>
            <path d="M313.2,73.7V67.5a2.86,2.86,0,0,0-.4-1.7c-.2-.4-.7-.6-1.4-.6a2,2,0,0,0-1.1.3,6.47,6.47,0,0,0-.9.8,4.49,4.49,0,0,0-.6,1.2,7.72,7.72,0,0,0-.2,1.5v4.7h-1.7V64h1.6v1c0,.4-.1.7-.1,1h0a4.31,4.31,0,0,1,1.3-1.7,3.7,3.7,0,0,1,2.1-.6,5.21,5.21,0,0,1,1.4.2,2.18,2.18,0,0,1,.9.7,3.13,3.13,0,0,1,.5,1,4.87,4.87,0,0,1,.1,1.2v6.8h-1.5Z" fill="#fff"/>
            <path d="M326.3,68.7a6.45,6.45,0,0,1-.3,2,4.37,4.37,0,0,1-2.4,2.7,4.06,4.06,0,0,1-1.9.4,4.84,4.84,0,0,1-1.8-.3,4.19,4.19,0,0,1-1.4-.9,3.77,3.77,0,0,1-.9-1.5,7.32,7.32,0,0,1-.3-2.2,6.45,6.45,0,0,1,.3-2,4.47,4.47,0,0,1,4.4-3.1,4.67,4.67,0,0,1,1.7.3,6.38,6.38,0,0,1,1.4.8,3.77,3.77,0,0,1,.9,1.5A8,8,0,0,1,326.3,68.7Zm-1.7.1a4,4,0,0,0-.7-2.6,2.58,2.58,0,0,0-2.1-.9,4.25,4.25,0,0,0-1.1.2,2.76,2.76,0,0,0-.9.7,2.38,2.38,0,0,0-.6,1.1,3.9,3.9,0,0,0-.2,1.6,4.65,4.65,0,0,0,.7,2.8,2.66,2.66,0,0,0,2.1,1,4.25,4.25,0,0,0,1.1-.2,2.76,2.76,0,0,0,.9-.7,2.38,2.38,0,0,0,.6-1.1A13.66,13.66,0,0,0,324.6,68.8Z" fill="#fff"/>
            <path d="M337.6,61a1,1,0,1,1-.3-.8A1.91,1.91,0,0,1,337.6,61Zm-2,12.7V64h1.7v9.7Z" fill="#fff"/>
            <path d="M346.8,73.7V67.5a2.86,2.86,0,0,0-.4-1.7c-.2-.4-.7-.6-1.4-.6a2,2,0,0,0-1.1.3,6.47,6.47,0,0,0-.9.8,4.49,4.49,0,0,0-.6,1.2,7.72,7.72,0,0,0-.2,1.5v4.7h-1.7V64h1.6v1c0,.4-.1.7-.1,1h0a4.31,4.31,0,0,1,1.3-1.7,3.7,3.7,0,0,1,2.1-.6,5.21,5.21,0,0,1,1.4.2,2.18,2.18,0,0,1,.9.7,3.13,3.13,0,0,1,.5,1,4.87,4.87,0,0,1,.1,1.2v6.8h-1.5Z" fill="#fff"/>
            <path d="M365.8,70a4.15,4.15,0,0,1-.3,1.6,2.34,2.34,0,0,1-1,1.2,5.3,5.3,0,0,1-1.5.8,5.82,5.82,0,0,1-1.9.3,9.15,9.15,0,0,1-1.7-.1c-.5-.1-1-.2-1.4-.3l.3-1.6a5,5,0,0,0,1.3.4,8.08,8.08,0,0,0,1.6.1,3.4,3.4,0,0,0,1-.1,3.55,3.55,0,0,0,.9-.4,1.34,1.34,0,0,0,.6-.7,1.82,1.82,0,0,0,.2-1.1,1.7,1.7,0,0,0-.1-.7,2.09,2.09,0,0,0-.4-.6,2.76,2.76,0,0,0-.8-.6,6.66,6.66,0,0,0-1.2-.6l-.7-.3a4.39,4.39,0,0,1-2.1-1.5,3.17,3.17,0,0,1-.6-2,4,4,0,0,1,.3-1.5,3.13,3.13,0,0,1,.9-1.1,3.09,3.09,0,0,1,1.4-.7,5.23,5.23,0,0,1,1.8-.3,6.6,6.6,0,0,1,1.4.1,5,5,0,0,1,1.2.2l-.3,1.5c-.3-.1-.7-.2-1.1-.3a5.28,5.28,0,0,0-1.3-.1,3.09,3.09,0,0,0-1.9.5,2,2,0,0,0-.7,1.5,2.11,2.11,0,0,0,.5,1.3,9.74,9.74,0,0,0,1.5,1l.8.3a7.63,7.63,0,0,1,2.4,1.5A3.34,3.34,0,0,1,365.8,70Z" fill="#fff"/>
            <path d="M372.3,73.7h-1.7L367,64h1.8l2.1,6,.3.9.3.9h0l.3-.9.3-.9,2.2-6h1.8Z" fill="#fff"/>
            <path d="M379.8,61a1,1,0,1,1-.3-.8A1.14,1.14,0,0,1,379.8,61Zm-1.9,12.7V64h1.7v9.7Z" fill="#fff"/>
            <path d="M382.2,73.7V72.6l4.7-7.1h-4.6V64h6.6v1.1l-4.7,7h4.7v1.5h-6.7Z" fill="#fff"/>
            <path d="M390.9,73.7V72.6l4.7-7.1H391V64h6.6v1.1l-4.7,7h4.7v1.5h-6.7Z" fill="#fff"/>
            <path d="M407.5,68v.8h-6.3a4,4,0,0,0,.7,2.9,2.87,2.87,0,0,0,2.3.9,8.75,8.75,0,0,0,1.6-.2,5,5,0,0,0,1.3-.4l.3,1.3a7.49,7.49,0,0,1-1.6.4,11.08,11.08,0,0,1-1.9.2,4.46,4.46,0,0,1-3.3-1.2,5.24,5.24,0,0,1-1.1-3.8,6.45,6.45,0,0,1,.3-2,6,6,0,0,1,.8-1.6,3.81,3.81,0,0,1,1.4-1.1,3.42,3.42,0,0,1,1.8-.4,4.31,4.31,0,0,1,1.7.3,2.73,2.73,0,0,1,1.2.9,5.39,5.39,0,0,1,.7,1.3A9.7,9.7,0,0,1,407.5,68Zm-2.2-2.2a2.41,2.41,0,0,0-1.7-.7,1.86,1.86,0,0,0-1.6.7,3.33,3.33,0,0,0-.8,1.8h4.7A2.44,2.44,0,0,0,405.3,65.8Z" fill="#fff"/>
            <path d="M415.1,65.5a2.49,2.49,0,0,0-.8-.1,2,2,0,0,0-1.9,1.2,7.31,7.31,0,0,0-.6,3.2v3.9h-1.7V64h1.6a4.48,4.48,0,0,1-.1,1.1,5,5,0,0,1-.2,1.2h0a4.18,4.18,0,0,1,1.1-1.8,2.58,2.58,0,0,1,2-.7h.3a.37.37,0,0,1,.3.1Z" fill="#fff"/>
            <path d="M422.5,73.7v-1a2.48,2.48,0,0,1,.1-.9h0a2.89,2.89,0,0,1-1.2,1.5,3.7,3.7,0,0,1-2.1.6,2.88,2.88,0,0,1-2-.7,2.06,2.06,0,0,1-.8-1.8,2.75,2.75,0,0,1,1.5-2.5,8.76,8.76,0,0,1,4.4-.9v-.5a2.46,2.46,0,0,0-.5-1.7,2.16,2.16,0,0,0-1.8-.6,5.9,5.9,0,0,0-1.4.2,5,5,0,0,0-1.3.5l-.4-1.4a13.08,13.08,0,0,1,1.5-.5,11.08,11.08,0,0,1,1.9-.2,9,9,0,0,1,1.8.2,3,3,0,0,1,1.1.7,2.38,2.38,0,0,1,.6,1.1,5.9,5.9,0,0,1,.2,1.4v6.4h-1.6Zm-.1-4.5a10.61,10.61,0,0,0-2.1.2,3.2,3.2,0,0,0-1.3.5,4.35,4.35,0,0,0-.7.6,1.85,1.85,0,0,0-.2.7,1.16,1.16,0,0,0,.4,1,1.5,1.5,0,0,0,1.1.4,2,2,0,0,0,1.1-.3,5.5,5.5,0,0,0,.9-.7c.2-.3.4-.7.6-1a5,5,0,0,0,.2-1.2Z" fill="#fff"/>
            <path d="M433.6,68.8V67.4h8.8v1.4Z" fill="#fff"/>
            <path d="M453.8,61a1,1,0,1,1-.3-.8A1.14,1.14,0,0,1,453.8,61Zm-2,12.7V64h1.7v9.7Z" fill="#fff"/>
            <path d="M469,73.7V67.5a4.31,4.31,0,0,0-.3-1.7,1.38,1.38,0,0,0-1.3-.6,1.93,1.93,0,0,0-1,.3,3.24,3.24,0,0,0-.9.8,2.28,2.28,0,0,0-.6,1.2,4.14,4.14,0,0,0-.2,1.6v4.6H463V67.5a2.77,2.77,0,0,0-.1-.9,1.45,1.45,0,0,0-.2-.7,1.21,1.21,0,0,0-.5-.5,1.88,1.88,0,0,0-.8-.2,2.28,2.28,0,0,0-1.1.3,6.47,6.47,0,0,0-.9.8,2.73,2.73,0,0,0-.6,1.2,7.77,7.77,0,0,0-.2,1.6v4.6h-1.7V64h1.6v1c0,.4-.1.7-.1,1h0a3.44,3.44,0,0,1,3.4-2.3,4.44,4.44,0,0,1,1.3.2,5.55,5.55,0,0,1,.8.6,2.51,2.51,0,0,1,.4.7,2,2,0,0,1,.1.7,2.51,2.51,0,0,1,.4-.7,2.34,2.34,0,0,1,.7-.7,8.79,8.79,0,0,1,1-.6,5.07,5.07,0,0,1,1.3-.2,2.86,2.86,0,0,1,2.1.8,3.29,3.29,0,0,1,.7,2.4v6.7H469Z" fill="#fff"/>
            <path d="M482.3,68.5a7.32,7.32,0,0,1-.3,2.2,3.67,3.67,0,0,1-1,1.7,3.07,3.07,0,0,1-1.5,1,5.92,5.92,0,0,1-2,.4h-1c-.3,0-.6-.1-.9-.1v4.9h-1.7V64.1h1.6v1c0,.4-.1.7-.1,1h0a3.44,3.44,0,0,1,1.3-1.6,3.38,3.38,0,0,1,2-.6,3.09,3.09,0,0,1,2.6,1.2A4.77,4.77,0,0,1,482.3,68.5Zm-1.7.2a5.51,5.51,0,0,0-.5-2.5,1.8,1.8,0,0,0-1.6-.9,1.59,1.59,0,0,0-1.2.4,3.82,3.82,0,0,0-.9.9,5,5,0,0,0-.5,1.3,6.75,6.75,0,0,0-.2,1.4v3.1c.3.1.5.2.8.3a3.75,3.75,0,0,0,1.1.1,5,5,0,0,0,1.2-.2,1.6,1.6,0,0,0,.9-.7,2.28,2.28,0,0,0,.6-1.2A7.47,7.47,0,0,0,480.6,68.7Z" fill="#fff"/>
            <path d="M490,73.7v-1a2.48,2.48,0,0,1,.1-.9h0a2.89,2.89,0,0,1-1.2,1.5,3.7,3.7,0,0,1-2.1.6,2.88,2.88,0,0,1-2-.7,2.06,2.06,0,0,1-.8-1.8,2.75,2.75,0,0,1,1.5-2.5,8.76,8.76,0,0,1,4.4-.9v-.5a2.46,2.46,0,0,0-.5-1.7,2.16,2.16,0,0,0-1.8-.6,5.9,5.9,0,0,0-1.4.2,5,5,0,0,0-1.3.5l-.4-1.4A13.08,13.08,0,0,1,486,64a11.08,11.08,0,0,1,1.9-.2,9,9,0,0,1,1.8.2,3,3,0,0,1,1.1.7,2.38,2.38,0,0,1,.6,1.1,5.9,5.9,0,0,1,.2,1.4v6.4H490Zm-.1-4.5a10.61,10.61,0,0,0-2.1.2,3.2,3.2,0,0,0-1.3.5,4.35,4.35,0,0,0-.7.6,1.85,1.85,0,0,0-.2.7,1.16,1.16,0,0,0,.4,1,1.5,1.5,0,0,0,1.1.4,2,2,0,0,0,1.1-.3,5.5,5.5,0,0,0,.9-.7c.2-.3.4-.7.6-1a5,5,0,0,0,.2-1.2Z" fill="#fff"/>
            <path d="M500,65.5a2.49,2.49,0,0,0-.8-.1,2,2,0,0,0-1.9,1.2,7.31,7.31,0,0,0-.6,3.2v3.9H495V64h1.6a4.48,4.48,0,0,1-.1,1.1,5,5,0,0,1-.2,1.2h0a4.18,4.18,0,0,1,1.1-1.8,2.58,2.58,0,0,1,2-.7h.3a.37.37,0,0,1,.3.1Z" fill="#fff"/>
            <path d="M507.3,73.7v-1a2.48,2.48,0,0,1,.1-.9h0a2.89,2.89,0,0,1-1.2,1.5,3.7,3.7,0,0,1-2.1.6,2.88,2.88,0,0,1-2-.7,2.2,2.2,0,0,1-.8-1.8,2.75,2.75,0,0,1,1.5-2.5,8.76,8.76,0,0,1,4.4-.9v-.5a2.46,2.46,0,0,0-.5-1.7,2.16,2.16,0,0,0-1.8-.6,5.9,5.9,0,0,0-1.4.2,5,5,0,0,0-1.3.5l-.4-1.4a13.08,13.08,0,0,1,1.5-.5,11.08,11.08,0,0,1,1.9-.2,9,9,0,0,1,1.8.2,3,3,0,0,1,1.1.7,2.38,2.38,0,0,1,.6,1.1,5.9,5.9,0,0,1,.2,1.4v6.4h-1.6Zm-.1-4.5a10.61,10.61,0,0,0-2.1.2,3.2,3.2,0,0,0-1.3.5,4.35,4.35,0,0,0-.7.6,1.85,1.85,0,0,0-.2.7,1.16,1.16,0,0,0,.4,1,1.5,1.5,0,0,0,1.1.4,2,2,0,0,0,1.1-.3,5.5,5.5,0,0,0,.9-.7c.2-.3.4-.7.6-1a5,5,0,0,0,.2-1.2Z" fill="#fff"/>
            <path d="M517.3,65.5a2.49,2.49,0,0,0-.8-.1,2,2,0,0,0-1.9,1.2,7.31,7.31,0,0,0-.6,3.2v3.9h-1.7V64h1.6a4.48,4.48,0,0,1-.1,1.1,5,5,0,0,1-.2,1.2h0a4.18,4.18,0,0,1,1.1-1.8,2.58,2.58,0,0,1,2-.7h.3a.37.37,0,0,1,.3.1Z" fill="#fff"/>
            <path d="M526.7,68v.8h-6.3a4,4,0,0,0,.7,2.9,2.87,2.87,0,0,0,2.3.9,8.75,8.75,0,0,0,1.6-.2,5,5,0,0,0,1.3-.4l.3,1.3a7.49,7.49,0,0,1-1.6.4,11.08,11.08,0,0,1-1.9.2,4.46,4.46,0,0,1-3.3-1.2,5.24,5.24,0,0,1-1.1-3.8,6.45,6.45,0,0,1,.3-2,6,6,0,0,1,.8-1.6,3.81,3.81,0,0,1,1.4-1.1,3.42,3.42,0,0,1,1.8-.4,4.31,4.31,0,0,1,1.7.3,2.73,2.73,0,0,1,1.2.9,5.39,5.39,0,0,1,.7,1.3C526.6,66.9,526.7,67.4,526.7,68Zm-2.2-2.2a2.41,2.41,0,0,0-1.7-.7,1.86,1.86,0,0,0-1.6.7,3.33,3.33,0,0,0-.8,1.8h4.7A2.44,2.44,0,0,0,524.5,65.8Z" fill="#fff"/>
            <path d="M529.8,71.6a.81.81,0,0,1,.8.4,1.8,1.8,0,0,1,.3,1.1,3.68,3.68,0,0,1-.5,1.6,5.4,5.4,0,0,1-1.6,1.9l-.7-.6a5.5,5.5,0,0,0,.7-.9,1.33,1.33,0,0,0,.3-.8.64.64,0,0,0,0-.6c0-.2-.1-.3-.2-.5s-.2-.3-.2-.5a.75.75,0,0,1,.1-.5.78.78,0,0,1,.4-.4A1.42,1.42,0,0,1,529.8,71.6Z" fill="#fff"/>
            <path d="M542.5,61a1,1,0,1,1-.3-.8A1.14,1.14,0,0,1,542.5,61Zm-2,12.7V64h1.7v9.7Z" fill="#fff"/>
            <path d="M551.8,73.7V67.5a2.86,2.86,0,0,0-.4-1.7c-.2-.4-.7-.6-1.4-.6a2,2,0,0,0-1.1.3,6.47,6.47,0,0,0-.9.8,4.49,4.49,0,0,0-.6,1.2,7.72,7.72,0,0,0-.2,1.5v4.7h-1.7V64h1.6v1c0,.4-.1.7-.1,1h0a4.31,4.31,0,0,1,1.3-1.7,3.7,3.7,0,0,1,2.1-.6,5.21,5.21,0,0,1,1.4.2,2.18,2.18,0,0,1,.9.7,3.13,3.13,0,0,1,.5,1,4.87,4.87,0,0,1,.1,1.2v6.8h-1.5Z" fill="#fff"/>
            <path d="M562.4,70.9a2.13,2.13,0,0,1-.3,1.2,2.36,2.36,0,0,1-.8.9,2.73,2.73,0,0,1-1.2.6,7.77,7.77,0,0,1-1.6.2,5.7,5.7,0,0,1-1.3-.1c-.4-.1-.8-.2-1.1-.3l.2-1.5a3.54,3.54,0,0,0,1.1.3,5.28,5.28,0,0,0,1.3.1,3.19,3.19,0,0,0,1.4-.3,1.1,1.1,0,0,0,.6-1,1,1,0,0,0-.4-.9,5,5,0,0,0-1.3-.7l-.6-.2a3.84,3.84,0,0,1-1.7-1.1,2.77,2.77,0,0,1-.5-1.6,4.25,4.25,0,0,1,.2-1.1,5.5,5.5,0,0,1,.7-.9,6.66,6.66,0,0,1,1.2-.6,7.77,7.77,0,0,1,1.6-.2h1c.3,0,.7.1,1,.1l-.2,1.4a2.92,2.92,0,0,0-.9-.2,3.08,3.08,0,0,0-1-.1,2,2,0,0,0-1.4.4,1.22,1.22,0,0,0-.4.9,1,1,0,0,0,.4.9,3.53,3.53,0,0,0,1.4.7l.6.3a4.88,4.88,0,0,1,1.6,1A5.84,5.84,0,0,1,562.4,70.9Z" fill="#fff"/>
            <path d="M572.3,68v.8H566a4,4,0,0,0,.7,2.9,2.87,2.87,0,0,0,2.3.9,8.75,8.75,0,0,0,1.6-.2,5,5,0,0,0,1.3-.4l.3,1.3a7.49,7.49,0,0,1-1.6.4,11.08,11.08,0,0,1-1.9.2,4.46,4.46,0,0,1-3.3-1.2,5.24,5.24,0,0,1-1.1-3.8,6.45,6.45,0,0,1,.3-2,6,6,0,0,1,.8-1.6,3.81,3.81,0,0,1,1.4-1.1,3.42,3.42,0,0,1,1.8-.4,4.31,4.31,0,0,1,1.7.3,2.73,2.73,0,0,1,1.2.9,5.39,5.39,0,0,1,.7,1.3C572.2,66.9,572.3,67.4,572.3,68Zm-2.2-2.2a2.41,2.41,0,0,0-1.7-.7,1.86,1.86,0,0,0-1.6.7,3.33,3.33,0,0,0-.8,1.8h4.7A2.44,2.44,0,0,0,570.1,65.8Z" fill="#fff"/>
            <path d="M581.6,65.3a2.18,2.18,0,0,1,.5.8,3.59,3.59,0,0,1,.2,1.1,3.19,3.19,0,0,1-.3,1.4,4.44,4.44,0,0,1-.8,1.1,5.67,5.67,0,0,1-1.3.8,4.67,4.67,0,0,1-1.7.3h-.6c-.2,0-.3,0-.4-.1a1.21,1.21,0,0,0-.6.9.51.51,0,0,0,.4.5,2.87,2.87,0,0,0,1.2.2l1.8.1a3.89,3.89,0,0,1,2.5.8,2.56,2.56,0,0,1,.8,1.9,3.19,3.19,0,0,1-.3,1.4,3.46,3.46,0,0,1-1,1.1,6,6,0,0,1-1.6.8,7.32,7.32,0,0,1-2.2.3,7.77,7.77,0,0,1-1.6-.2,5,5,0,0,1-1.3-.5,2,2,0,0,1-.9-.9,2.13,2.13,0,0,1-.3-1.2,3,3,0,0,1,.5-1.5,4.49,4.49,0,0,1,1.3-1.1,1.38,1.38,0,0,1-1-1.3,1.93,1.93,0,0,1,.3-1,3,3,0,0,1,.8-.8,2.35,2.35,0,0,1-1.1-1.1,4.19,4.19,0,0,1-.4-1.6,3.19,3.19,0,0,1,.3-1.4,4.18,4.18,0,0,1,.8-1.2,4.11,4.11,0,0,1,1.3-.8,4.67,4.67,0,0,1,1.7-.3h.7c.2,0,.4.1.7.1h3.4v1.3h-1.8Zm-.2,10.1a1.5,1.5,0,0,0-.4-1.1,2.73,2.73,0,0,0-1.6-.5l-2.4-.1a2.84,2.84,0,0,0-1,.9,1.67,1.67,0,0,0-.4,1.1,1.46,1.46,0,0,0,.7,1.3,3.68,3.68,0,0,0,2,.5,5.21,5.21,0,0,0,1.4-.2,3.13,3.13,0,0,0,1-.5,1.34,1.34,0,0,0,.6-.7A1.7,1.7,0,0,0,581.4,75.4Zm-.7-8.1a2.27,2.27,0,0,0-.6-1.6,2.48,2.48,0,0,0-1.8-.7,3,3,0,0,0-1,.2,2.62,2.62,0,0,0-1.2,1.2,2.92,2.92,0,0,0-.2.9,2.27,2.27,0,0,0,.6,1.6,2.71,2.71,0,0,0,3.4,0A1.94,1.94,0,0,0,580.7,67.3Z" fill="#fff"/>
            <path d="M591.8,73.7V67.5a2.86,2.86,0,0,0-.4-1.7c-.2-.4-.7-.6-1.4-.6a2,2,0,0,0-1.1.3,6.47,6.47,0,0,0-.9.8,4.49,4.49,0,0,0-.6,1.2,7.72,7.72,0,0,0-.2,1.5v4.7h-1.7V64h1.6v1c0,.4-.1.7-.1,1h0a4.31,4.31,0,0,1,1.3-1.7,3.7,3.7,0,0,1,2.1-.6,5.21,5.21,0,0,1,1.4.2,2.18,2.18,0,0,1,.9.7,3.13,3.13,0,0,1,.5,1,4.87,4.87,0,0,1,.1,1.2v6.8h-1.5Z" fill="#fff"/>
            <path d="M601.9,73.7v-1a2.48,2.48,0,0,1,.1-.9h0a2.89,2.89,0,0,1-1.2,1.5,3.7,3.7,0,0,1-2.1.6,2.88,2.88,0,0,1-2-.7,2.06,2.06,0,0,1-.8-1.8,2.75,2.75,0,0,1,1.5-2.5,8.76,8.76,0,0,1,4.4-.9v-.5a2.46,2.46,0,0,0-.5-1.7,2.16,2.16,0,0,0-1.8-.6,5.9,5.9,0,0,0-1.4.2,5,5,0,0,0-1.3.5l-.4-1.4a13.08,13.08,0,0,1,1.5-.5,11.08,11.08,0,0,1,1.9-.2,9,9,0,0,1,1.8.2,3,3,0,0,1,1.1.7,2.38,2.38,0,0,1,.6,1.1,5.9,5.9,0,0,1,.2,1.4v6.4h-1.6Zm0-4.5a10.61,10.61,0,0,0-2.1.2,3.2,3.2,0,0,0-1.3.5,4.35,4.35,0,0,0-.7.6,1.85,1.85,0,0,0-.2.7,1.16,1.16,0,0,0,.4,1,1.5,1.5,0,0,0,1.1.4,2,2,0,0,0,1.1-.3,5.5,5.5,0,0,0,.9-.7c.2-.3.4-.7.6-1a5,5,0,0,0,.2-1.2Z" fill="#fff"/>
            <path d="M611.9,65.5a2.49,2.49,0,0,0-.8-.1,2,2,0,0,0-1.9,1.2,7.31,7.31,0,0,0-.6,3.2v3.9h-1.7V64h1.6a4.48,4.48,0,0,1-.1,1.1,5,5,0,0,1-.2,1.2h0a4.18,4.18,0,0,1,1.1-1.8,2.58,2.58,0,0,1,2-.7h.3a.37.37,0,0,1,.3.1Z" fill="#fff"/>
            <path d="M621.3,68v.8H615a4,4,0,0,0,.7,2.9,2.87,2.87,0,0,0,2.3.9,8.75,8.75,0,0,0,1.6-.2,5,5,0,0,0,1.3-.4l.3,1.3a7.49,7.49,0,0,1-1.6.4,11.08,11.08,0,0,1-1.9.2,4.46,4.46,0,0,1-3.3-1.2,5.24,5.24,0,0,1-1.1-3.8,6.45,6.45,0,0,1,.3-2,6,6,0,0,1,.8-1.6,3.81,3.81,0,0,1,1.4-1.1,3.42,3.42,0,0,1,1.8-.4,4.31,4.31,0,0,1,1.7.3,2.73,2.73,0,0,1,1.2.9,5.39,5.39,0,0,1,.7,1.3C621.2,66.9,621.3,67.4,621.3,68Zm-2.2-2.2a2.41,2.41,0,0,0-1.7-.7,1.86,1.86,0,0,0-1.6.7,3.33,3.33,0,0,0-.8,1.8h4.7A2.44,2.44,0,0,0,619.1,65.8Z" fill="#fff"/>
            <path d="M624.4,71.6a.81.81,0,0,1,.8.4,1.8,1.8,0,0,1,.3,1.1,3.68,3.68,0,0,1-.5,1.6,5.4,5.4,0,0,1-1.6,1.9l-.7-.6a5.5,5.5,0,0,0,.7-.9,1.33,1.33,0,0,0,.3-.8.64.64,0,0,0,0-.6c0-.2-.1-.3-.2-.5s-.2-.3-.2-.5a.75.75,0,0,1,.1-.5.78.78,0,0,1,.4-.4A1.42,1.42,0,0,1,624.4,71.6Z" fill="#fff"/>
            <path d="M639,73.7h-1.7L633.7,64h1.8l2.1,6,.3.9.3.9h0l.3-.9.3-.9,2.2-6h1.8Z" fill="#fff"/>
            <path d="M649.7,73.7v-1a2.48,2.48,0,0,1,.1-.9h0a2.89,2.89,0,0,1-1.2,1.5,3.7,3.7,0,0,1-2.1.6,2.88,2.88,0,0,1-2-.7,2.06,2.06,0,0,1-.8-1.8,2.75,2.75,0,0,1,1.5-2.5,8.76,8.76,0,0,1,4.4-.9v-.5a2.46,2.46,0,0,0-.5-1.7,2.16,2.16,0,0,0-1.8-.6,5.9,5.9,0,0,0-1.4.2,5,5,0,0,0-1.3.5l-.4-1.4a13.08,13.08,0,0,1,1.5-.5,11.08,11.08,0,0,1,1.9-.2,9,9,0,0,1,1.8.2,3,3,0,0,1,1.1.7,2.38,2.38,0,0,1,.6,1.1,5.9,5.9,0,0,1,.2,1.4v6.4h-1.6Zm-.1-4.5a10.61,10.61,0,0,0-2.1.2,3.2,3.2,0,0,0-1.3.5,4.35,4.35,0,0,0-.7.6,1.85,1.85,0,0,0-.2.7,1.16,1.16,0,0,0,.4,1,1.5,1.5,0,0,0,1.1.4,2,2,0,0,0,1.1-.3,5.5,5.5,0,0,0,.9-.7c.2-.3.4-.7.6-1a5,5,0,0,0,.2-1.2Z" fill="#fff"/>
            <path d="M654.7,73.7V59.5h1.7V73.7Z" fill="#fff"/>
            <path d="M665.9,73.7v-1c0-.4.1-.7.1-1h0a4.31,4.31,0,0,1-1.3,1.7,3.7,3.7,0,0,1-2.1.6,5.21,5.21,0,0,1-1.4-.2,2.18,2.18,0,0,1-.9-.7,3.13,3.13,0,0,1-.5-1,4.87,4.87,0,0,1-.1-1.2V64.1h1.7v6.2a2.86,2.86,0,0,0,.4,1.7,1.38,1.38,0,0,0,1.3.6,2,2,0,0,0,1.1-.3,6.47,6.47,0,0,0,.9-.8,4.49,4.49,0,0,0,.6-1.2,7.72,7.72,0,0,0,.2-1.5V64.1h1.7v9.7h-1.7Z" fill="#fff"/>
            <path d="M674.9,73.8a4.21,4.21,0,0,1-2.2-.1,2.18,2.18,0,0,1-.8-.5,1.88,1.88,0,0,1-.4-.9,5.28,5.28,0,0,1-.1-1.3V65.3h-2V64h2V60.8l1.7-.5v3.6h2.8v1.3h-2.8v5.1a2.79,2.79,0,0,0,.1,1,.85.85,0,0,0,.2.6c.1.2.2.3.4.3a1.27,1.27,0,0,0,.6.1,2.2,2.2,0,0,0,.8-.1,1.85,1.85,0,0,0,.7-.2l.2,1.3A2.37,2.37,0,0,1,674.9,73.8Z" fill="#fff"/>
            <path d="M683.3,73.7v-1a2.48,2.48,0,0,1,.1-.9h0a2.89,2.89,0,0,1-1.2,1.5,3.7,3.7,0,0,1-2.1.6,2.88,2.88,0,0,1-2-.7,2.2,2.2,0,0,1-.8-1.8,2.75,2.75,0,0,1,1.5-2.5,8.76,8.76,0,0,1,4.4-.9v-.5a2.46,2.46,0,0,0-.5-1.7,2.16,2.16,0,0,0-1.8-.6,5.9,5.9,0,0,0-1.4.2,5,5,0,0,0-1.3.5l-.4-1.4a13.08,13.08,0,0,1,1.5-.5,11.08,11.08,0,0,1,1.9-.2,9,9,0,0,1,1.8.2,3,3,0,0,1,1.1.7,2.38,2.38,0,0,1,.6,1.1,5.9,5.9,0,0,1,.2,1.4v6.4h-1.6Zm-.1-4.5a10.61,10.61,0,0,0-2.1.2,3.2,3.2,0,0,0-1.3.5,4.35,4.35,0,0,0-.7.6,1.85,1.85,0,0,0-.2.7,1.16,1.16,0,0,0,.4,1,1.5,1.5,0,0,0,1.1.4,2,2,0,0,0,1.1-.3,5.5,5.5,0,0,0,.9-.7c.2-.3.4-.7.6-1a5,5,0,0,0,.2-1.2Z" fill="#fff"/>
            <path d="M693.3,65.5a2.49,2.49,0,0,0-.8-.1,2,2,0,0,0-1.9,1.2,7.31,7.31,0,0,0-.6,3.2v3.9h-1.7V64h1.6a4.48,4.48,0,0,1-.1,1.1,5,5,0,0,1-.2,1.2h0a4.18,4.18,0,0,1,1.1-1.8,2.58,2.58,0,0,1,2-.7h.3a.37.37,0,0,1,.3.1Z" fill="#fff"/>
            <path d="M702.7,68v.8h-6.3a4,4,0,0,0,.7,2.9,2.87,2.87,0,0,0,2.3.9,8.75,8.75,0,0,0,1.6-.2,5,5,0,0,0,1.3-.4l.3,1.3a7.49,7.49,0,0,1-1.6.4,11.08,11.08,0,0,1-1.9.2,4.46,4.46,0,0,1-3.3-1.2,5.24,5.24,0,0,1-1.1-3.8,6.45,6.45,0,0,1,.3-2,6,6,0,0,1,.8-1.6,3.81,3.81,0,0,1,1.4-1.1,3.42,3.42,0,0,1,1.8-.4,4.31,4.31,0,0,1,1.7.3,2.73,2.73,0,0,1,1.2.9,5.39,5.39,0,0,1,.7,1.3C702.6,66.9,702.7,67.4,702.7,68Zm-2.2-2.2a2.41,2.41,0,0,0-1.7-.7,1.86,1.86,0,0,0-1.6.7,3.33,3.33,0,0,0-.8,1.8h4.7A2.44,2.44,0,0,0,700.5,65.8Z" fill="#fff"/>
            <path d="M274.9,90.3a7.31,7.31,0,0,1-.6,3,6.64,6.64,0,0,1-1.5,2.1,5.76,5.76,0,0,1-2.3,1.3,8.85,8.85,0,0,1-2.9.4h-3.3V84h3.9a8.63,8.63,0,0,1,2.8.4,5.49,5.49,0,0,1,2.1,1.2,4.64,4.64,0,0,1,1.3,2A6.49,6.49,0,0,1,274.9,90.3Zm-1.8.2a5.69,5.69,0,0,0-1.2-3.9,4.87,4.87,0,0,0-3.8-1.3h-2V95.6c.3,0,.6.1.9.1h.9a6.65,6.65,0,0,0,2.1-.3,4.25,4.25,0,0,0,1.7-1,4.57,4.57,0,0,0,1.1-1.6A7.55,7.55,0,0,0,273.1,90.5Z" fill="#fff"/>
            <path d="M284.7,91.3v.8h-6.3a4,4,0,0,0,.7,2.9,2.87,2.87,0,0,0,2.3.9,8.75,8.75,0,0,0,1.6-.2,5,5,0,0,0,1.3-.4l.3,1.3a7.49,7.49,0,0,1-1.6.4,11.08,11.08,0,0,1-1.9.2,4.46,4.46,0,0,1-3.3-1.2,5.24,5.24,0,0,1-1.1-3.8,6.45,6.45,0,0,1,.3-2,6,6,0,0,1,.8-1.6,3.81,3.81,0,0,1,1.4-1.1,3.42,3.42,0,0,1,1.8-.4,4.31,4.31,0,0,1,1.7.3,2.73,2.73,0,0,1,1.2.9,5.39,5.39,0,0,1,.7,1.3C284.6,90.3,284.7,90.8,284.7,91.3Zm-2.2-2.2a2.41,2.41,0,0,0-1.7-.7,1.86,1.86,0,0,0-1.6.7,3.33,3.33,0,0,0-.8,1.8h4.7A2.79,2.79,0,0,0,282.5,89.1Z" fill="#fff"/>
            <path d="M293.5,97.1v-1c0-.4.1-.7.1-1h0a4.31,4.31,0,0,1-1.3,1.7,3.7,3.7,0,0,1-2.1.6,5.21,5.21,0,0,1-1.4-.2,2.18,2.18,0,0,1-.9-.7,3.13,3.13,0,0,1-.5-1,4.87,4.87,0,0,1-.1-1.2V87.5H289v6.2a2.86,2.86,0,0,0,.4,1.7,1.38,1.38,0,0,0,1.3.6,2,2,0,0,0,1.1-.3,6.47,6.47,0,0,0,.9-.8,4.49,4.49,0,0,0,.6-1.2,7.72,7.72,0,0,0,.2-1.5V87.5h1.7v9.7h-1.7Z" fill="#fff"/>
            <path d="M302.5,97.1a4.21,4.21,0,0,1-2.2-.1,2.18,2.18,0,0,1-.8-.5,1.88,1.88,0,0,1-.4-.9,5.28,5.28,0,0,1-.1-1.3V88.6h-2V87.3h2V84.1l1.7-.5v3.6h2.8v1.3h-2.8v5.1a2.79,2.79,0,0,0,.1,1,.85.85,0,0,0,.2.6c.1.2.2.3.4.3a1.27,1.27,0,0,0,.6.1,2.2,2.2,0,0,0,.8-.1,6.37,6.37,0,0,0,.7-.2l.2,1.3A1.91,1.91,0,0,1,302.5,97.1Z" fill="#fff"/>
            <path d="M311.4,94.3a2.13,2.13,0,0,1-.3,1.2,2.36,2.36,0,0,1-.8.9,2.73,2.73,0,0,1-1.2.6,7.77,7.77,0,0,1-1.6.2,5.7,5.7,0,0,1-1.3-.1c-.4-.1-.8-.2-1.1-.3l.2-1.5a3.54,3.54,0,0,0,1.1.3,5.28,5.28,0,0,0,1.3.1,3.19,3.19,0,0,0,1.4-.3,1.1,1.1,0,0,0,.6-1,1,1,0,0,0-.4-.9,5,5,0,0,0-1.3-.7l-.6-.2a3.84,3.84,0,0,1-1.7-1.1,2.77,2.77,0,0,1-.5-1.6,4.25,4.25,0,0,1,.2-1.1,5.5,5.5,0,0,1,.7-.9,6.66,6.66,0,0,1,1.2-.6,7.77,7.77,0,0,1,1.6-.2h1c.3,0,.7.1,1,.1l-.2,1.4a2.92,2.92,0,0,0-.9-.2,3.08,3.08,0,0,0-1-.1,2,2,0,0,0-1.4.4,1.22,1.22,0,0,0-.4.9,1,1,0,0,0,.4.9,3.53,3.53,0,0,0,1.4.7l.6.3a4.88,4.88,0,0,1,1.6,1A5.26,5.26,0,0,1,311.4,94.3Z" fill="#fff"/>
            <path d="M319,97a8.81,8.81,0,0,1-1.7.2,7.77,7.77,0,0,1-1.6-.2,2.22,2.22,0,0,1-1.3-.8,3.39,3.39,0,0,1-.9-1.4,6.87,6.87,0,0,1-.3-2.2,7.8,7.8,0,0,1,.3-2.2,4.61,4.61,0,0,1,.9-1.7,4.86,4.86,0,0,1,1.4-1.1,4.48,4.48,0,0,1,2-.4,5.28,5.28,0,0,1,1.3.1,9.29,9.29,0,0,1,1.3.4l-.4,1.4a4.79,4.79,0,0,0-2.3-.5,2.39,2.39,0,0,0-2.1,1,4.65,4.65,0,0,0-.7,2.8,6.6,6.6,0,0,0,.1,1.4,3.58,3.58,0,0,0,.4,1.1,1.78,1.78,0,0,0,.8.7,2.5,2.5,0,0,0,1.3.3,6.75,6.75,0,0,0,1.4-.2c.4-.1.8-.3,1.2-.4l.3,1.3A12.75,12.75,0,0,1,319,97Z" fill="#fff"/>
            <path d="M328.9,97.1V90.9a2.86,2.86,0,0,0-.4-1.7c-.2-.4-.7-.6-1.4-.6a2,2,0,0,0-1.1.3,6.47,6.47,0,0,0-.9.8,4.49,4.49,0,0,0-.6,1.2,7.72,7.72,0,0,0-.2,1.5v4.7h-1.7V82.9h1.7v5.6c0,.4-.1.7-.1.9h0a3.44,3.44,0,0,1,1.3-1.6,3.7,3.7,0,0,1,2.1-.6,5.21,5.21,0,0,1,1.4.2,2.18,2.18,0,0,1,.9.7,3.13,3.13,0,0,1,.5,1,4.87,4.87,0,0,1,.1,1.2v6.8Z" fill="#fff"/>
            <path d="M342.2,84.3a1,1,0,1,1-.3-.8A1.14,1.14,0,0,1,342.2,84.3Zm-2,12.8V87.4h1.7v9.7Z" fill="#fff"/>
            <path d="M351.4,97.1V90.9a2.86,2.86,0,0,0-.4-1.7c-.2-.4-.7-.6-1.4-.6a2,2,0,0,0-1.1.3,6.47,6.47,0,0,0-.9.8,4.49,4.49,0,0,0-.6,1.2,7.72,7.72,0,0,0-.2,1.5v4.7h-1.7V87.4h1.6v1c0,.4-.1.7-.1,1h0a4.31,4.31,0,0,1,1.3-1.7,3.7,3.7,0,0,1,2.1-.6,5.21,5.21,0,0,1,1.4.2,2.18,2.18,0,0,1,.9.7,3.13,3.13,0,0,1,.5,1,4.87,4.87,0,0,1,.1,1.2V97h-1.5Z" fill="#fff"/>
            <path d="M368.6,97.1v-1c0-.4.1-.7.1-1h0a4,4,0,0,1-1.2,1.6,3.38,3.38,0,0,1-2,.6,3.16,3.16,0,0,1-2.7-1.2,5.39,5.39,0,0,1-.9-3.3,5.56,5.56,0,0,1,.4-2.3,4.78,4.78,0,0,1,1-1.7,4.57,4.57,0,0,1,1.6-1.1,6.54,6.54,0,0,1,2.1-.4h.8a2.77,2.77,0,0,1,.9.1V82.9h1.7V97.1Zm-.1-8.3c-.3-.1-.6-.1-.9-.2h-.9a5.07,5.07,0,0,0-1.3.2,2.61,2.61,0,0,0-1.6,1.9,9,9,0,0,0-.2,1.8,5.51,5.51,0,0,0,.5,2.5,1.85,1.85,0,0,0,1.7.9,1.75,1.75,0,0,0,1.2-.4,2.36,2.36,0,0,0,.8-.9,6.12,6.12,0,0,0,.5-1.2,5.85,5.85,0,0,0,.2-1.3V88.8Z" fill="#fff"/>
            <path d="M380.8,91.3v.8h-6.3a4,4,0,0,0,.7,2.9,2.87,2.87,0,0,0,2.3.9,8.75,8.75,0,0,0,1.6-.2,5,5,0,0,0,1.3-.4l.3,1.3a7.49,7.49,0,0,1-1.6.4,11.08,11.08,0,0,1-1.9.2,4.46,4.46,0,0,1-3.3-1.2,5.24,5.24,0,0,1-1.1-3.8,6.45,6.45,0,0,1,.3-2,6,6,0,0,1,.8-1.6,3.81,3.81,0,0,1,1.4-1.1,3.42,3.42,0,0,1,1.8-.4,4.31,4.31,0,0,1,1.7.3,2.73,2.73,0,0,1,1.2.9,5.39,5.39,0,0,1,.7,1.3C380.7,90.3,380.8,90.8,380.8,91.3Zm-2.2-2.2a2.41,2.41,0,0,0-1.7-.7,1.86,1.86,0,0,0-1.6.7,3.33,3.33,0,0,0-.8,1.8h4.7A3.51,3.51,0,0,0,378.6,89.1Z" fill="#fff"/>
            <path d="M388.4,88.9a2.49,2.49,0,0,0-.8-.1,2,2,0,0,0-1.9,1.2,7.31,7.31,0,0,0-.6,3.2v3.9h-1.7V87.4H385a4.48,4.48,0,0,1-.1,1.1,5,5,0,0,1-.2,1.2h0a4.18,4.18,0,0,1,1.1-1.8,2.58,2.58,0,0,1,2-.7h.3a.37.37,0,0,1,.3.1Z" fill="#fff"/>
            <path d="M403.9,93.3a4.15,4.15,0,0,1-.3,1.6,2.34,2.34,0,0,1-1,1.2,5.3,5.3,0,0,1-1.5.8,5.82,5.82,0,0,1-1.9.3,9.15,9.15,0,0,1-1.7-.1c-.5-.1-1-.2-1.4-.3l.3-1.6a5,5,0,0,0,1.3.4,8.08,8.08,0,0,0,1.6.1,3.4,3.4,0,0,0,1-.1,3.55,3.55,0,0,0,.9-.4,1.34,1.34,0,0,0,.6-.7,1.82,1.82,0,0,0,.2-1.1,1.7,1.7,0,0,0-.1-.7,2.09,2.09,0,0,0-.4-.6,2.76,2.76,0,0,0-.8-.6,6.66,6.66,0,0,0-1.2-.6l-.7-.3a4.39,4.39,0,0,1-2.1-1.5,3.17,3.17,0,0,1-.6-2,4,4,0,0,1,.3-1.5,3.13,3.13,0,0,1,.9-1.1,3.09,3.09,0,0,1,1.4-.7,5.23,5.23,0,0,1,1.8-.3,6.6,6.6,0,0,1,1.4.1,5,5,0,0,1,1.2.2l-.3,1.5c-.3-.1-.7-.2-1.1-.3a5.28,5.28,0,0,0-1.3-.1,3.09,3.09,0,0,0-1.9.5,2,2,0,0,0-.7,1.5,2.11,2.11,0,0,0,.5,1.3,9.74,9.74,0,0,0,1.5,1l.8.3A7.63,7.63,0,0,1,403,91,2.94,2.94,0,0,1,403.9,93.3Z" fill="#fff"/>
            <path d="M411.6,97a8.81,8.81,0,0,1-1.7.2,7.77,7.77,0,0,1-1.6-.2,2.22,2.22,0,0,1-1.3-.8,3.39,3.39,0,0,1-.9-1.4,6.87,6.87,0,0,1-.3-2.2,7.8,7.8,0,0,1,.3-2.2,4.61,4.61,0,0,1,.9-1.7,4.86,4.86,0,0,1,1.4-1.1,4.48,4.48,0,0,1,2-.4,5.28,5.28,0,0,1,1.3.1,9.29,9.29,0,0,1,1.3.4l-.4,1.4a4.79,4.79,0,0,0-2.3-.5,2.39,2.39,0,0,0-2.1,1,4.65,4.65,0,0,0-.7,2.8,6.6,6.6,0,0,0,.1,1.4,3.58,3.58,0,0,0,.4,1.1,1.78,1.78,0,0,0,.8.7,2.5,2.5,0,0,0,1.3.3,6.75,6.75,0,0,0,1.4-.2c.4-.1.8-.3,1.2-.4l.3,1.3C412.6,96.7,412.1,96.9,411.6,97Z" fill="#fff"/>
            <path d="M421.5,97.1V90.9a2.86,2.86,0,0,0-.4-1.7c-.2-.4-.7-.6-1.4-.6a2,2,0,0,0-1.1.3,6.47,6.47,0,0,0-.9.8,4.49,4.49,0,0,0-.6,1.2,7.72,7.72,0,0,0-.2,1.5v4.7h-1.7V82.9h1.7v5.6c0,.4-.1.7-.1.9h0a3.44,3.44,0,0,1,1.3-1.6,3.7,3.7,0,0,1,2.1-.6,5.21,5.21,0,0,1,1.4.2,2.18,2.18,0,0,1,.9.7,3.13,3.13,0,0,1,.5,1,4.87,4.87,0,0,1,.1,1.2v6.8Z" fill="#fff"/>
            <path d="M436.8,97.1h-1.9l-2-5.9-.3-.9c-.1-.3-.2-.6-.3-1h0l-.3,1.2a5.64,5.64,0,0,1-.4,1.2l-1.7,5.4h-1.8l-3-9.7h1.8l1.6,5.4a5,5,0,0,0,.4,1.3l.3,1.2h0l.3-1.2a5.64,5.64,0,0,1,.4-1.2l1.7-5.4h1.8l1.7,5.4a6.89,6.89,0,0,0,.3.8c.1.2.1.4.2.6s.1.4.2.6.1.3.1.5h0c.1-.4.2-.8.3-1.1a9.29,9.29,0,0,1,.4-1.3l1.6-5.4H440Z" fill="#fff"/>
            <path d="M449.2,91.3v.8h-6.4a4,4,0,0,0,.7,2.9,2.87,2.87,0,0,0,2.3.9,8.75,8.75,0,0,0,1.6-.2,5,5,0,0,0,1.3-.4l.3,1.3a7.49,7.49,0,0,1-1.6.4,11.08,11.08,0,0,1-1.9.2,4.46,4.46,0,0,1-3.3-1.2,5.24,5.24,0,0,1-1.1-3.8,6.45,6.45,0,0,1,.3-2,6,6,0,0,1,.8-1.6,3.81,3.81,0,0,1,1.4-1.1,3.42,3.42,0,0,1,1.8-.4,4.31,4.31,0,0,1,1.7.3,2.73,2.73,0,0,1,1.2.9,5.39,5.39,0,0,1,.7,1.3A12.77,12.77,0,0,1,449.2,91.3ZM447,89.1a2.41,2.41,0,0,0-1.7-.7,1.86,1.86,0,0,0-1.6.7,3.33,3.33,0,0,0-.8,1.8h4.7A2.79,2.79,0,0,0,447,89.1Z" fill="#fff"/>
            <path d="M453.8,84.3a1,1,0,1,1-.3-.8A1.14,1.14,0,0,1,453.8,84.3Zm-2,12.8V87.4h1.7v9.7Z" fill="#fff"/>
            <path d="M456.1,97.1V96l4.7-7.1h-4.6V87.4h6.6v1.1l-4.7,7h4.7V97h-6.7Z" fill="#fff"/>
            <path d="M471.1,92.2V90.8h8.8v1.4Z" fill="#fff"/>
            <path d="M488.8,97.1V82.9h1.7V97.1Z" fill="#fff"/>
            <path d="M501.1,91.3v.8h-6.3a4,4,0,0,0,.7,2.9,2.87,2.87,0,0,0,2.3.9,8.75,8.75,0,0,0,1.6-.2,5,5,0,0,0,1.3-.4l.3,1.3a7.49,7.49,0,0,1-1.6.4,11.08,11.08,0,0,1-1.9.2,4.46,4.46,0,0,1-3.3-1.2,5.24,5.24,0,0,1-1.1-3.8,6.45,6.45,0,0,1,.3-2,6,6,0,0,1,.8-1.6,3.81,3.81,0,0,1,1.4-1.1,3.42,3.42,0,0,1,1.8-.4,4.31,4.31,0,0,1,1.7.3,2.73,2.73,0,0,1,1.2.9,5.39,5.39,0,0,1,.7,1.3C501,90.3,501.1,90.8,501.1,91.3Zm-2.3-2.2a2.41,2.41,0,0,0-1.7-.7,1.86,1.86,0,0,0-1.6.7,3.33,3.33,0,0,0-.8,1.8h4.7A2.79,2.79,0,0,0,498.8,89.1Z" fill="#fff"/>
            <path d="M508.7,88.9a2.49,2.49,0,0,0-.8-.1A2,2,0,0,0,506,90a7.31,7.31,0,0,0-.6,3.2v3.9h-1.7V87.4h1.6a4.48,4.48,0,0,1-.1,1.1,5,5,0,0,1-.2,1.2h0a4.18,4.18,0,0,1,1.1-1.8,2.58,2.58,0,0,1,2-.7h.3a.37.37,0,0,1,.3.1Z" fill="#fff"/>
            <path d="M517.1,97.1V90.9a2.86,2.86,0,0,0-.4-1.7c-.2-.4-.7-.6-1.4-.6a2,2,0,0,0-1.1.3,6.47,6.47,0,0,0-.9.8,4.49,4.49,0,0,0-.6,1.2,7.72,7.72,0,0,0-.2,1.5v4.7h-1.7V87.4h1.6v1c0,.4-.1.7-.1,1h0a4.31,4.31,0,0,1,1.3-1.7,3.7,3.7,0,0,1,2.1-.6,5.21,5.21,0,0,1,1.4.2,2.18,2.18,0,0,1,.9.7,3.13,3.13,0,0,1,.5,1,4.87,4.87,0,0,1,.1,1.2V97h-1.5Z" fill="#fff"/>
            <path d="M529.3,91.3v.8H523a4,4,0,0,0,.7,2.9,2.87,2.87,0,0,0,2.3.9,8.75,8.75,0,0,0,1.6-.2,5,5,0,0,0,1.3-.4l.3,1.3a7.49,7.49,0,0,1-1.6.4,11.08,11.08,0,0,1-1.9.2,4.46,4.46,0,0,1-3.3-1.2,5.24,5.24,0,0,1-1.1-3.8,6.45,6.45,0,0,1,.3-2,6,6,0,0,1,.8-1.6,3.81,3.81,0,0,1,1.4-1.1,3.42,3.42,0,0,1,1.8-.4,4.31,4.31,0,0,1,1.7.3,2.73,2.73,0,0,1,1.2.9,5.39,5.39,0,0,1,.7,1.3C529.2,90.3,529.3,90.8,529.3,91.3Zm-2.2-2.2a2.41,2.41,0,0,0-1.7-.7,1.86,1.86,0,0,0-1.6.7,3.33,3.33,0,0,0-.8,1.8h4.7A2.79,2.79,0,0,0,527.1,89.1Z" fill="#fff"/>
            <path d="M538.1,97.1V90.9a2.86,2.86,0,0,0-.4-1.7c-.2-.4-.7-.6-1.4-.6a2,2,0,0,0-1.1.3,6.47,6.47,0,0,0-.9.8,4.49,4.49,0,0,0-.6,1.2,7.72,7.72,0,0,0-.2,1.5v4.7h-1.7V87.4h1.6v1c0,.4-.1.7-.1,1h0a4.31,4.31,0,0,1,1.3-1.7,3.7,3.7,0,0,1,2.1-.6,5.21,5.21,0,0,1,1.4.2,2.18,2.18,0,0,1,.9.7,3.13,3.13,0,0,1,.5,1,4.87,4.87,0,0,1,.1,1.2V97h-1.5Z" fill="#fff"/>
            <path d="M543.6,95a.81.81,0,0,1,.8.4,1.8,1.8,0,0,1,.3,1.1,3.68,3.68,0,0,1-.5,1.6,5.4,5.4,0,0,1-1.6,1.9l-.7-.6a5.5,5.5,0,0,0,.7-.9,1.33,1.33,0,0,0,.3-.8.64.64,0,0,0,0-.6c0-.2-.1-.3-.2-.5s-.2-.3-.2-.5a.75.75,0,0,1,.1-.5.78.78,0,0,1,.4-.4A.73.73,0,0,1,543.6,95Z" fill="#fff"/>
            <path d="M553.8,97.1V82.9h1.7V97.1Z" fill="#fff"/>
            <path d="M566,91.3v.8h-6.3a4,4,0,0,0,.7,2.9,2.87,2.87,0,0,0,2.3.9,8.75,8.75,0,0,0,1.6-.2,5,5,0,0,0,1.3-.4l.3,1.3a7.49,7.49,0,0,1-1.6.4,11.08,11.08,0,0,1-1.9.2,4.46,4.46,0,0,1-3.3-1.2,5.24,5.24,0,0,1-1.1-3.8,6.45,6.45,0,0,1,.3-2,6,6,0,0,1,.8-1.6,3.81,3.81,0,0,1,1.4-1.1,3.42,3.42,0,0,1,1.8-.4,4.31,4.31,0,0,1,1.7.3,2.73,2.73,0,0,1,1.2.9,5.39,5.39,0,0,1,.7,1.3A10.9,10.9,0,0,1,566,91.3Zm-2.2-2.2a2.41,2.41,0,0,0-1.7-.7,1.86,1.86,0,0,0-1.6.7,3.33,3.33,0,0,0-.8,1.8h4.7A2.79,2.79,0,0,0,563.8,89.1Z" fill="#fff"/>
            <path d="M574.9,97.1V90.9a2.86,2.86,0,0,0-.4-1.7c-.2-.4-.7-.6-1.4-.6a2,2,0,0,0-1.1.3,6.47,6.47,0,0,0-.9.8,4.49,4.49,0,0,0-.6,1.2,7.72,7.72,0,0,0-.2,1.5v4.7h-1.7V82.9h1.7v5.6c0,.4-.1.7-.1.9h0a3.44,3.44,0,0,1,1.3-1.6,3.7,3.7,0,0,1,2.1-.6,5.21,5.21,0,0,1,1.4.2,2.18,2.18,0,0,1,.9.7,3.13,3.13,0,0,1,.5,1,4.87,4.87,0,0,1,.1,1.2v6.8Z" fill="#fff"/>
            <path d="M584.9,88.9a2.49,2.49,0,0,0-.8-.1,2,2,0,0,0-1.9,1.2,7.31,7.31,0,0,0-.6,3.2v3.9h-1.7V87.4h1.6a4.48,4.48,0,0,1-.1,1.1,5,5,0,0,1-.2,1.2h0a4.18,4.18,0,0,1,1.1-1.8,2.58,2.58,0,0,1,2-.7h.3a.37.37,0,0,1,.3.1Z" fill="#fff"/>
            <path d="M594.3,91.3v.8H588a4,4,0,0,0,.7,2.9,2.87,2.87,0,0,0,2.3.9,8.75,8.75,0,0,0,1.6-.2,5,5,0,0,0,1.3-.4l.3,1.3a7.49,7.49,0,0,1-1.6.4,11.08,11.08,0,0,1-1.9.2,4.46,4.46,0,0,1-3.3-1.2,5.24,5.24,0,0,1-1.1-3.8,6.45,6.45,0,0,1,.3-2,6,6,0,0,1,.8-1.6,3.81,3.81,0,0,1,1.4-1.1,3.42,3.42,0,0,1,1.8-.4,4.31,4.31,0,0,1,1.7.3,2.73,2.73,0,0,1,1.2.9,5.39,5.39,0,0,1,.7,1.3C594.2,90.3,594.3,90.8,594.3,91.3Zm-2.2-2.2a2.41,2.41,0,0,0-1.7-.7,1.86,1.86,0,0,0-1.6.7,3.33,3.33,0,0,0-.8,1.8h4.7A3.51,3.51,0,0,0,592.1,89.1Z" fill="#fff"/>
            <path d="M603.1,97.1V90.9a2.86,2.86,0,0,0-.4-1.7c-.2-.4-.7-.6-1.4-.6a2,2,0,0,0-1.1.3,6.47,6.47,0,0,0-.9.8,4.49,4.49,0,0,0-.6,1.2,7.72,7.72,0,0,0-.2,1.5v4.7h-1.7V87.4h1.6v1c0,.4-.1.7-.1,1h0a4.31,4.31,0,0,1,1.3-1.7,3.7,3.7,0,0,1,2.1-.6,5.21,5.21,0,0,1,1.4.2,2.18,2.18,0,0,1,.9.7,3.13,3.13,0,0,1,.5,1,4.87,4.87,0,0,1,.1,1.2V97h-1.5Z" fill="#fff"/>
            <path d="M608.6,95a.81.81,0,0,1,.8.4,1.8,1.8,0,0,1,.3,1.1,3.68,3.68,0,0,1-.5,1.6,5.4,5.4,0,0,1-1.6,1.9l-.7-.6a5.5,5.5,0,0,0,.7-.9,1.33,1.33,0,0,0,.3-.8.64.64,0,0,0,0-.6c0-.2-.1-.3-.2-.5s-.2-.3-.2-.5a.75.75,0,0,1,.1-.5.78.78,0,0,1,.4-.4A.73.73,0,0,1,608.6,95Z" fill="#fff"/>
            <path d="M627.1,91.8a8,8,0,0,1-.3,2.3,4.78,4.78,0,0,1-1,1.7,4.57,4.57,0,0,1-1.6,1.1,6.54,6.54,0,0,1-2.1.4,10.28,10.28,0,0,1-1.8-.1l-1.5-.3v-14h1.7v5.7c0,.3-.1.6-.1.9h0a3.44,3.44,0,0,1,1.3-1.6,3.38,3.38,0,0,1,2-.6,3.09,3.09,0,0,1,2.6,1.2A5.49,5.49,0,0,1,627.1,91.8Zm-1.7.1a5.51,5.51,0,0,0-.5-2.5,1.85,1.85,0,0,0-1.7-.9,1.75,1.75,0,0,0-1.2.4,2.36,2.36,0,0,0-.8.9,6.12,6.12,0,0,0-.5,1.2,5.85,5.85,0,0,0-.2,1.3v3.3a4.84,4.84,0,0,0,1.8.3,5.07,5.07,0,0,0,1.3-.2,3.59,3.59,0,0,0,1-.7,2.28,2.28,0,0,0,.6-1.2A11.08,11.08,0,0,0,625.4,91.9Z" fill="#fff"/>
            <path d="M636.8,91.3v.8h-6.3a4,4,0,0,0,.7,2.9,2.87,2.87,0,0,0,2.3.9,8.75,8.75,0,0,0,1.6-.2,5,5,0,0,0,1.3-.4l.3,1.3a7.49,7.49,0,0,1-1.6.4,11.08,11.08,0,0,1-1.9.2,4.46,4.46,0,0,1-3.3-1.2,5.24,5.24,0,0,1-1.1-3.8,6.45,6.45,0,0,1,.3-2,6,6,0,0,1,.8-1.6,3.81,3.81,0,0,1,1.4-1.1,3.42,3.42,0,0,1,1.8-.4,4.31,4.31,0,0,1,1.7.3,2.73,2.73,0,0,1,1.2.9,5.39,5.39,0,0,1,.7,1.3A10.9,10.9,0,0,1,636.8,91.3Zm-2.2-2.2a2.41,2.41,0,0,0-1.7-.7,1.86,1.86,0,0,0-1.6.7,3.33,3.33,0,0,0-.8,1.8h4.7A2.79,2.79,0,0,0,634.6,89.1Z" fill="#fff"/>
            <path d="M645.7,97.1v-1c0-.4.1-.7.1-1h0a4.31,4.31,0,0,1-1.3,1.7,3.7,3.7,0,0,1-2.1.6,5.21,5.21,0,0,1-1.4-.2,2.18,2.18,0,0,1-.9-.7,3.13,3.13,0,0,1-.5-1,4.87,4.87,0,0,1-.1-1.2V87.5h1.7v6.2a2.86,2.86,0,0,0,.4,1.7,1.38,1.38,0,0,0,1.3.6,2,2,0,0,0,1.1-.3,6.47,6.47,0,0,0,.9-.8,4.49,4.49,0,0,0,.6-1.2,7.72,7.72,0,0,0,.2-1.5V87.5h1.7v9.7h-1.7Z" fill="#fff"/>
            <path d="M655.7,88.9a2.49,2.49,0,0,0-.8-.1A2,2,0,0,0,653,90a7.31,7.31,0,0,0-.6,3.2v3.9h-1.7V87.4h1.6a4.48,4.48,0,0,1-.1,1.1,5,5,0,0,1-.2,1.2h0a4.18,4.18,0,0,1,1.1-1.8,2.58,2.58,0,0,1,2-.7h.3a.37.37,0,0,1,.3.1Z" fill="#fff"/>
            <path d="M661.8,97.1a4.21,4.21,0,0,1-2.2-.1,2.18,2.18,0,0,1-.8-.5,1.88,1.88,0,0,1-.4-.9,5.28,5.28,0,0,1-.1-1.3V88.6h-2V87.3h2V84.1l1.7-.5v3.6h2.8v1.3H660v5.1a2.79,2.79,0,0,0,.1,1,.85.85,0,0,0,.2.6c.1.2.2.3.4.3a1.27,1.27,0,0,0,.6.1,2.2,2.2,0,0,0,.8-.1,6.37,6.37,0,0,0,.7-.2l.2,1.3A1.73,1.73,0,0,1,661.8,97.1Z" fill="#fff"/>
            <path d="M672.3,91.3v.8H666a4,4,0,0,0,.7,2.9,2.87,2.87,0,0,0,2.3.9,8.75,8.75,0,0,0,1.6-.2,5,5,0,0,0,1.3-.4l.3,1.3a7.49,7.49,0,0,1-1.6.4,11.08,11.08,0,0,1-1.9.2,4.46,4.46,0,0,1-3.3-1.2,5.24,5.24,0,0,1-1.1-3.8,6.45,6.45,0,0,1,.3-2,6,6,0,0,1,.8-1.6,3.81,3.81,0,0,1,1.4-1.1,3.42,3.42,0,0,1,1.8-.4,4.31,4.31,0,0,1,1.7.3,2.73,2.73,0,0,1,1.2.9,5.39,5.39,0,0,1,.7,1.3C672.2,90.3,672.3,90.8,672.3,91.3Zm-2.2-2.2a2.41,2.41,0,0,0-1.7-.7,1.86,1.86,0,0,0-1.6.7,3.33,3.33,0,0,0-.8,1.8h4.7A2.79,2.79,0,0,0,670.1,89.1Z" fill="#fff"/>
            <path d="M676.9,84.3a1,1,0,1,1-.3-.8A1.14,1.14,0,0,1,676.9,84.3Zm-2,12.8V87.4h1.7v9.7Z" fill="#fff"/>
            <path d="M680,97.1V82.9h1.7V97.1Z" fill="#fff"/>
            <path d="M692.2,91.3v.8h-6.3a4,4,0,0,0,.7,2.9,2.87,2.87,0,0,0,2.3.9,8.75,8.75,0,0,0,1.6-.2,5,5,0,0,0,1.3-.4l.3,1.3a7.49,7.49,0,0,1-1.6.4,11.08,11.08,0,0,1-1.9.2,4.46,4.46,0,0,1-3.3-1.2,5.24,5.24,0,0,1-1.1-3.8,6.45,6.45,0,0,1,.3-2,6,6,0,0,1,.8-1.6,3.81,3.81,0,0,1,1.4-1.1,3.42,3.42,0,0,1,1.8-.4,4.31,4.31,0,0,1,1.7.3,2.73,2.73,0,0,1,1.2.9,5.39,5.39,0,0,1,.7,1.3A10.9,10.9,0,0,1,692.2,91.3ZM690,89.1a2.41,2.41,0,0,0-1.7-.7,1.86,1.86,0,0,0-1.6.7,3.33,3.33,0,0,0-.8,1.8h4.7A2.79,2.79,0,0,0,690,89.1Z" fill="#fff"/>
            <path d="M701.1,97.1V90.9a2.86,2.86,0,0,0-.4-1.7c-.2-.4-.7-.6-1.4-.6a2,2,0,0,0-1.1.3,6.47,6.47,0,0,0-.9.8,4.49,4.49,0,0,0-.6,1.2,7.72,7.72,0,0,0-.2,1.5v4.7h-1.7V87.4h1.6v1c0,.4-.1.7-.1,1h0a4.31,4.31,0,0,1,1.3-1.7,3.7,3.7,0,0,1,2.1-.6,5.21,5.21,0,0,1,1.4.2,2.18,2.18,0,0,1,.9.7,3.13,3.13,0,0,1,.5,1,4.87,4.87,0,0,1,.1,1.2V97h-1.5Z" fill="#fff"/>
          </g>
          <g>
            <g>
              <path d="M49.8,96V43.8H22.9V96H12.6V43.8H0v-8H12.6V33c0-8.5,2.3-15,6.8-19.5S31,6.7,40.5,6.7a49.45,49.45,0,0,1,8.7.7c2.8.4,5.5,1,8.1,1.6l-1.9,8.6A66.91,66.91,0,0,0,48,15.8a51.07,51.07,0,0,0-7.3-.7c-6.3,0-10.9,1.4-13.6,4.3S23,26.4,23,31.7v4H60.2V95.9H49.8Z" fill="#fff"/>
              <path d="M117.3,96c0-1.8.1-3.9.2-6.2a38.51,38.51,0,0,1,.8-6.4l-.2-.1A21.07,21.07,0,0,1,97.8,97.1c-7.4,0-13-2.5-16.6-7.6s-5.5-12-5.5-20.8a41.52,41.52,0,0,1,2.2-14.2,30,30,0,0,1,6.2-10.6,28.59,28.59,0,0,1,9.7-6.7,34.73,34.73,0,0,1,12.8-2.3c1.7,0,3.4.1,5.1.2s3.5.3,5.4.4V7.5h10.3V95.9H117.3Zm-.2-51.6a36.58,36.58,0,0,0-5.6-1,51.69,51.69,0,0,0-5.4-.3A22.92,22.92,0,0,0,98,44.5a15,15,0,0,0-6.2,4.4,20,20,0,0,0-4,7.7,41,41,0,0,0-1.4,11.3c0,6.6,1.1,11.7,3.3,15.4s5.7,5.4,10.5,5.4a12.43,12.43,0,0,0,7.4-2.2,19.29,19.29,0,0,0,5.3-5.7,27.16,27.16,0,0,0,3.2-7.6,33.65,33.65,0,0,0,1.1-8.2V44.4Z" fill="#fff"/>
              <path d="M193.3,60.3v2.3c0,.8-.1,1.7-.2,2.7H153.6c-.3,8.2,1.1,14.1,4.3,17.8s7.9,5.5,14.2,5.5a43.72,43.72,0,0,0,9.7-1A41.62,41.62,0,0,0,190,85l1.8,8.2A54.75,54.75,0,0,1,182,96a62.79,62.79,0,0,1-11.7,1.1c-8.9,0-15.7-2.5-20.5-7.5s-7.1-12.8-6.9-23.4a41.49,41.49,0,0,1,1.8-12.5,29.9,29.9,0,0,1,5.3-10,24.66,24.66,0,0,1,8.4-6.6,25.82,25.82,0,0,1,11.4-2.4,24.59,24.59,0,0,1,10.7,2.1,20.38,20.38,0,0,1,7.3,5.6,23.62,23.62,0,0,1,4.2,8.2A33.94,33.94,0,0,1,193.3,60.3ZM179.5,46.5c-2.5-2.8-5.9-4.2-10.3-4.2A13.87,13.87,0,0,0,159,46.4c-2.7,2.7-4.3,6.5-5,11.4h28.9C183.2,53.1,182,49.3,179.5,46.5Z" fill="#fff"/>
            </g>
            <path d="M232.2,4.9A13.36,13.36,0,0,0,221.6,0a13.52,13.52,0,0,0-8,2.3A13,13,0,0,0,208.9,8a16.54,16.54,0,0,0-1,4.4h8V4.2h8.2v8.2h8.2v8.2h-8.2v8.2h-8.2V20.6h-7.2a17,17,0,0,0,3.5,6.4c4.3,5,5.7,8.3,5,12.4s-3.1,6.4-9,12.8l5.4,5.1c8.3-7.2,14.2-14.2,17.6-21.1s5.2-13,5.2-18.3S235,8.2,232.2,4.9Z" fill="#fff"/>
          </g>
        </g>
      </g>
    </g>
  </g>
</svg>
